<svg xmlns="http://www.w3.org/2000/svg" xmlns:xlink="http://www.w3.org/1999/xlink" width="270" zoomAndPan="magnify" viewBox="0 0 202.5 37.5" height="50" preserveAspectRatio="xMidYMid meet" version="1.2"><defs><clipPath id="c59c8cd40d"><path d="M 110.191406 0.808594 L 145.582031 0.808594 L 145.582031 36.199219 L 110.191406 36.199219 Z M 110.191406 0.808594 "/></clipPath><clipPath id="c187de26a6"><path d="M 127.886719 0.808594 C 118.113281 0.808594 110.191406 8.730469 110.191406 18.503906 C 110.191406 28.277344 118.113281 36.199219 127.886719 36.199219 C 137.660156 36.199219 145.582031 28.277344 145.582031 18.503906 C 145.582031 8.730469 137.660156 0.808594 127.886719 0.808594 Z M 127.886719 0.808594 "/></clipPath><clipPath id="609ec9fe03"><path d="M 163.929688 0.808594 L 199.320312 0.808594 L 199.320312 36.199219 L 163.929688 36.199219 Z M 163.929688 0.808594 "/></clipPath><clipPath id="6ab86e2cfe"><path d="M 181.625 0.808594 C 171.851562 0.808594 163.929688 8.730469 163.929688 18.503906 C 163.929688 28.277344 171.851562 36.199219 181.625 36.199219 C 191.398438 36.199219 199.320312 28.277344 199.320312 18.503906 C 199.320312 8.730469 191.398438 0.808594 181.625 0.808594 Z M 181.625 0.808594 "/></clipPath><clipPath id="93c56649be"><path d="M 2.714844 0.808594 L 38.101562 0.808594 L 38.101562 36.199219 L 2.714844 36.199219 Z M 2.714844 0.808594 "/></clipPath><clipPath id="022725d06c"><path d="M 20.410156 0.808594 C 10.636719 0.808594 2.714844 8.730469 2.714844 18.503906 C 2.714844 28.277344 10.636719 36.199219 20.410156 36.199219 C 30.179688 36.199219 38.101562 28.277344 38.101562 18.503906 C 38.101562 8.730469 30.179688 0.808594 20.410156 0.808594 Z M 20.410156 0.808594 "/></clipPath><clipPath id="74816f0158"><path d="M 2.714844 0.808594 L 38.101562 0.808594 L 38.101562 36.195312 L 2.714844 36.195312 Z M 2.714844 0.808594 "/></clipPath><clipPath id="64b659e55f"><path d="M 20.40625 0.808594 C 10.636719 0.808594 2.714844 8.730469 2.714844 18.503906 C 2.714844 28.273438 10.636719 36.195312 20.40625 36.195312 C 30.179688 36.195312 38.101562 28.273438 38.101562 18.503906 C 38.101562 8.730469 30.179688 0.808594 20.40625 0.808594 Z M 20.40625 0.808594 "/></clipPath><clipPath id="f8686dce2f"><path d="M 56.453125 0.808594 L 91.839844 0.808594 L 91.839844 36.199219 L 56.453125 36.199219 Z M 56.453125 0.808594 "/></clipPath><clipPath id="5c967b633f"><path d="M 74.148438 0.808594 C 64.375 0.808594 56.453125 8.730469 56.453125 18.503906 C 56.453125 28.277344 64.375 36.199219 74.148438 36.199219 C 83.917969 36.199219 91.839844 28.277344 91.839844 18.503906 C 91.839844 8.730469 83.917969 0.808594 74.148438 0.808594 Z M 74.148438 0.808594 "/></clipPath></defs><g id="51c7a8f0f7"><g clip-rule="nonzero" clip-path="url(#c59c8cd40d)"><g clip-rule="nonzero" clip-path="url(#c187de26a6)"><path style=" stroke:none;fill-rule:nonzero;fill:#7f1734;fill-opacity:1;" d="M 110.191406 0.808594 L 145.582031 0.808594 L 145.582031 36.199219 L 110.191406 36.199219 Z M 110.191406 0.808594 "/></g></g><g clip-rule="nonzero" clip-path="url(#609ec9fe03)"><g clip-rule="nonzero" clip-path="url(#6ab86e2cfe)"><path style=" stroke:none;fill-rule:nonzero;fill:#123524;fill-opacity:1;" d="M 163.929688 0.808594 L 199.320312 0.808594 L 199.320312 36.199219 L 163.929688 36.199219 Z M 163.929688 0.808594 "/></g></g><g clip-rule="nonzero" clip-path="url(#93c56649be)"><g clip-rule="nonzero" clip-path="url(#022725d06c)"><path style=" stroke:none;fill-rule:nonzero;fill:#ffffff;fill-opacity:1;" d="M 2.714844 0.808594 L 38.101562 0.808594 L 38.101562 36.199219 L 2.714844 36.199219 Z M 2.714844 0.808594 "/></g></g><g clip-rule="nonzero" clip-path="url(#74816f0158)"><g clip-rule="nonzero" clip-path="url(#64b659e55f)"><path style="fill:none;stroke-width:2;stroke-linecap:butt;stroke-linejoin:miter;stroke:#4a4a4a;stroke-opacity:1;stroke-miterlimit:4;" d="M 23.904446 -0.000390856 C 10.704723 -0.000390856 0.00138898 10.702943 0.00138898 23.907943 C 0.00138898 37.107666 10.704723 47.811 23.904446 47.811 C 37.109446 47.811 47.81278 37.107666 47.81278 23.907943 C 47.81278 10.702943 37.109446 -0.000390856 23.904446 -0.000390856 Z M 23.904446 -0.000390856 " transform="matrix(0.740132,0,0,0.740132,2.713816,0.808883)"/></g></g><g clip-rule="nonzero" clip-path="url(#f8686dce2f)"><g clip-rule="nonzero" clip-path="url(#5c967b633f)"><path style=" stroke:none;fill-rule:nonzero;fill:#ffcfcf;fill-opacity:1;" d="M 56.453125 0.808594 L 91.839844 0.808594 L 91.839844 36.199219 L 56.453125 36.199219 Z M 56.453125 0.808594 "/></g></g></g></svg>