<svg xmlns="http://www.w3.org/2000/svg" xmlns:xlink="http://www.w3.org/1999/xlink" width="270" zoomAndPan="magnify" viewBox="0 0 202.5 37.5" height="50" preserveAspectRatio="xMidYMid meet" version="1.2"><defs><clipPath id="c64d8aa28c"><path d="M 110.191406 0.808594 L 145.582031 0.808594 L 145.582031 36.199219 L 110.191406 36.199219 Z M 110.191406 0.808594 "/></clipPath><clipPath id="6c3fe42161"><path d="M 127.886719 0.808594 C 118.113281 0.808594 110.191406 8.730469 110.191406 18.503906 C 110.191406 28.277344 118.113281 36.199219 127.886719 36.199219 C 137.660156 36.199219 145.582031 28.277344 145.582031 18.503906 C 145.582031 8.730469 137.660156 0.808594 127.886719 0.808594 Z M 127.886719 0.808594 "/></clipPath><clipPath id="a96519b7f2"><path d="M 163.929688 0.808594 L 199.320312 0.808594 L 199.320312 36.199219 L 163.929688 36.199219 Z M 163.929688 0.808594 "/></clipPath><clipPath id="c4ffaf9ad4"><path d="M 181.625 0.808594 C 171.851562 0.808594 163.929688 8.730469 163.929688 18.503906 C 163.929688 28.277344 171.851562 36.199219 181.625 36.199219 C 191.398438 36.199219 199.320312 28.277344 199.320312 18.503906 C 199.320312 8.730469 191.398438 0.808594 181.625 0.808594 Z M 181.625 0.808594 "/></clipPath><clipPath id="b49e314299"><path d="M 2.714844 0.808594 L 38.101562 0.808594 L 38.101562 36.199219 L 2.714844 36.199219 Z M 2.714844 0.808594 "/></clipPath><clipPath id="c76efe9d11"><path d="M 20.410156 0.808594 C 10.636719 0.808594 2.714844 8.730469 2.714844 18.503906 C 2.714844 28.277344 10.636719 36.199219 20.410156 36.199219 C 30.179688 36.199219 38.101562 28.277344 38.101562 18.503906 C 38.101562 8.730469 30.179688 0.808594 20.410156 0.808594 Z M 20.410156 0.808594 "/></clipPath><clipPath id="23062e83e0"><path d="M 56.453125 0.808594 L 91.839844 0.808594 L 91.839844 36.199219 L 56.453125 36.199219 Z M 56.453125 0.808594 "/></clipPath><clipPath id="2164737e65"><path d="M 74.148438 0.808594 C 64.375 0.808594 56.453125 8.730469 56.453125 18.503906 C 56.453125 28.277344 64.375 36.199219 74.148438 36.199219 C 83.917969 36.199219 91.839844 28.277344 91.839844 18.503906 C 91.839844 8.730469 83.917969 0.808594 74.148438 0.808594 Z M 74.148438 0.808594 "/></clipPath></defs><g id="19c59cdfb4"><g clip-rule="nonzero" clip-path="url(#c64d8aa28c)"><g clip-rule="nonzero" clip-path="url(#6c3fe42161)"><path style=" stroke:none;fill-rule:nonzero;fill:#7f1734;fill-opacity:1;" d="M 110.191406 0.808594 L 145.582031 0.808594 L 145.582031 36.199219 L 110.191406 36.199219 Z M 110.191406 0.808594 "/></g></g><g clip-rule="nonzero" clip-path="url(#a96519b7f2)"><g clip-rule="nonzero" clip-path="url(#c4ffaf9ad4)"><path style=" stroke:none;fill-rule:nonzero;fill:#123524;fill-opacity:1;" d="M 163.929688 0.808594 L 199.320312 0.808594 L 199.320312 36.199219 L 163.929688 36.199219 Z M 163.929688 0.808594 "/></g></g><g clip-rule="nonzero" clip-path="url(#b49e314299)"><g clip-rule="nonzero" clip-path="url(#c76efe9d11)"><path style=" stroke:none;fill-rule:nonzero;fill:#ffffff;fill-opacity:1;" d="M 2.714844 0.808594 L 38.101562 0.808594 L 38.101562 36.199219 L 2.714844 36.199219 Z M 2.714844 0.808594 "/></g></g><g clip-rule="nonzero" clip-path="url(#23062e83e0)"><g clip-rule="nonzero" clip-path="url(#2164737e65)"><path style=" stroke:none;fill-rule:nonzero;fill:#ffcfcf;fill-opacity:1;" d="M 56.453125 0.808594 L 91.839844 0.808594 L 91.839844 36.199219 L 56.453125 36.199219 Z M 56.453125 0.808594 "/></g></g></g></svg>