<svg xmlns="http://www.w3.org/2000/svg" xmlns:xlink="http://www.w3.org/1999/xlink" width="116" zoomAndPan="magnify" viewBox="0 0 87 34.499999" height="46" preserveAspectRatio="xMidYMid meet" version="1.0"><defs><g/><clipPath id="0b4e74ec40"><path d="M 0.621094 3 L 9 3 L 9 14 L 0.621094 14 Z M 0.621094 3 " clip-rule="nonzero"/></clipPath></defs><g clip-path="url(#0b4e74ec40)"><g fill="#4a4a4a" fill-opacity="1"><g transform="translate(0.62143, 13.127302)"><g><path d="M 7.875 -9.484375 L 7.875 -9.21875 C 7.707031 -9.175781 7.535156 -9.0625 7.359375 -8.875 C 7.191406 -8.695312 7.003906 -8.410156 6.796875 -8.015625 L 4.09375 -2.671875 L 3.875 -2.671875 L 0.734375 -8.453125 C 0.554688 -8.773438 0.40625 -8.976562 0.28125 -9.0625 C 0.164062 -9.15625 0.0546875 -9.203125 -0.046875 -9.203125 L -0.046875 -9.484375 C 0.140625 -9.472656 0.328125 -9.460938 0.515625 -9.453125 C 0.703125 -9.441406 0.910156 -9.4375 1.140625 -9.4375 C 1.429688 -9.4375 1.742188 -9.4375 2.078125 -9.4375 C 2.410156 -9.445312 2.722656 -9.460938 3.015625 -9.484375 L 3.015625 -9.203125 C 2.785156 -9.203125 2.585938 -9.171875 2.421875 -9.109375 C 2.253906 -9.054688 2.144531 -8.957031 2.09375 -8.8125 C 2.039062 -8.675781 2.078125 -8.476562 2.203125 -8.21875 L 4.46875 -3.890625 L 4.359375 -3.796875 L 6.140625 -7.34375 C 6.390625 -7.84375 6.507812 -8.222656 6.5 -8.484375 C 6.5 -8.753906 6.394531 -8.941406 6.1875 -9.046875 C 5.988281 -9.148438 5.703125 -9.207031 5.328125 -9.21875 L 5.328125 -9.484375 C 5.585938 -9.472656 5.847656 -9.460938 6.109375 -9.453125 C 6.378906 -9.441406 6.632812 -9.4375 6.875 -9.4375 C 7.101562 -9.4375 7.289062 -9.441406 7.4375 -9.453125 C 7.59375 -9.460938 7.738281 -9.472656 7.875 -9.484375 Z M 4.703125 -4.078125 L 4.703125 -1.421875 C 4.703125 -1.097656 4.726562 -0.851562 4.78125 -0.6875 C 4.832031 -0.53125 4.9375 -0.425781 5.09375 -0.375 C 5.25 -0.320312 5.476562 -0.285156 5.78125 -0.265625 L 5.78125 0 C 5.582031 -0.0195312 5.328125 -0.03125 5.015625 -0.03125 C 4.703125 -0.0390625 4.390625 -0.046875 4.078125 -0.046875 C 3.734375 -0.046875 3.410156 -0.0390625 3.109375 -0.03125 C 2.804688 -0.03125 2.5625 -0.0195312 2.375 0 L 2.375 -0.265625 C 2.675781 -0.285156 2.90625 -0.320312 3.0625 -0.375 C 3.21875 -0.425781 3.320312 -0.53125 3.375 -0.6875 C 3.425781 -0.851562 3.453125 -1.097656 3.453125 -1.421875 L 3.453125 -4.171875 L 4.171875 -3.328125 Z M 4.703125 -4.078125 "/></g></g></g></g><g fill="#4a4a4a" fill-opacity="1"><g transform="translate(8.536896, 13.127302)"><g><path d="M 4.96875 -9.671875 C 5.8125 -9.671875 6.550781 -9.476562 7.1875 -9.09375 C 7.832031 -8.707031 8.332031 -8.15625 8.6875 -7.4375 C 9.039062 -6.71875 9.21875 -5.847656 9.21875 -4.828125 C 9.21875 -3.828125 9.035156 -2.953125 8.671875 -2.203125 C 8.304688 -1.453125 7.800781 -0.863281 7.15625 -0.4375 C 6.519531 -0.0195312 5.785156 0.1875 4.953125 0.1875 C 4.109375 0.1875 3.363281 -0.00390625 2.71875 -0.390625 C 2.082031 -0.773438 1.585938 -1.328125 1.234375 -2.046875 C 0.878906 -2.773438 0.703125 -3.644531 0.703125 -4.65625 C 0.703125 -5.65625 0.882812 -6.53125 1.25 -7.28125 C 1.625 -8.03125 2.128906 -8.613281 2.765625 -9.03125 C 3.398438 -9.457031 4.132812 -9.671875 4.96875 -9.671875 Z M 4.921875 -9.421875 C 4.335938 -9.421875 3.832031 -9.21875 3.40625 -8.8125 C 2.976562 -8.414062 2.644531 -7.863281 2.40625 -7.15625 C 2.164062 -6.457031 2.046875 -5.644531 2.046875 -4.71875 C 2.046875 -3.769531 2.175781 -2.941406 2.4375 -2.234375 C 2.707031 -1.535156 3.066406 -0.992188 3.515625 -0.609375 C 3.960938 -0.234375 4.460938 -0.046875 5.015625 -0.046875 C 5.585938 -0.046875 6.085938 -0.25 6.515625 -0.65625 C 6.941406 -1.0625 7.273438 -1.617188 7.515625 -2.328125 C 7.753906 -3.035156 7.875 -3.847656 7.875 -4.765625 C 7.875 -5.722656 7.738281 -6.546875 7.46875 -7.234375 C 7.207031 -7.929688 6.851562 -8.46875 6.40625 -8.84375 C 5.96875 -9.226562 5.472656 -9.421875 4.921875 -9.421875 Z M 4.921875 -9.421875 "/></g></g></g><g fill="#4a4a4a" fill-opacity="1"><g transform="translate(18.461366, 13.127302)"><g><path d="M 8.765625 -9.484375 L 8.765625 -9.21875 C 8.460938 -9.207031 8.234375 -9.160156 8.078125 -9.078125 C 7.921875 -8.992188 7.816406 -8.863281 7.765625 -8.6875 C 7.710938 -8.507812 7.6875 -8.253906 7.6875 -7.921875 L 7.6875 -3.890625 C 7.6875 -3.265625 7.644531 -2.71875 7.5625 -2.25 C 7.476562 -1.789062 7.335938 -1.394531 7.140625 -1.0625 C 6.910156 -0.6875 6.582031 -0.382812 6.15625 -0.15625 C 5.726562 0.0703125 5.238281 0.1875 4.6875 0.1875 C 4.257812 0.1875 3.847656 0.132812 3.453125 0.03125 C 3.066406 -0.0703125 2.726562 -0.257812 2.4375 -0.53125 C 2.175781 -0.78125 1.972656 -1.039062 1.828125 -1.3125 C 1.679688 -1.59375 1.582031 -1.9375 1.53125 -2.34375 C 1.476562 -2.75 1.453125 -3.253906 1.453125 -3.859375 L 1.453125 -8.0625 C 1.453125 -8.394531 1.421875 -8.640625 1.359375 -8.796875 C 1.304688 -8.953125 1.203125 -9.054688 1.046875 -9.109375 C 0.890625 -9.171875 0.660156 -9.207031 0.359375 -9.21875 L 0.359375 -9.484375 C 0.546875 -9.472656 0.789062 -9.460938 1.09375 -9.453125 C 1.394531 -9.441406 1.722656 -9.4375 2.078125 -9.4375 C 2.390625 -9.4375 2.695312 -9.441406 3 -9.453125 C 3.3125 -9.460938 3.570312 -9.472656 3.78125 -9.484375 L 3.78125 -9.21875 C 3.476562 -9.207031 3.25 -9.171875 3.09375 -9.109375 C 2.9375 -9.054688 2.828125 -8.953125 2.765625 -8.796875 C 2.710938 -8.640625 2.6875 -8.394531 2.6875 -8.0625 L 2.6875 -3.625 C 2.6875 -3.175781 2.707031 -2.75 2.75 -2.34375 C 2.800781 -1.9375 2.894531 -1.578125 3.03125 -1.265625 C 3.164062 -0.953125 3.375 -0.707031 3.65625 -0.53125 C 3.945312 -0.363281 4.332031 -0.28125 4.8125 -0.28125 C 5.488281 -0.28125 6.007812 -0.425781 6.375 -0.71875 C 6.75 -1.019531 7.007812 -1.4375 7.15625 -1.96875 C 7.300781 -2.5 7.375 -3.09375 7.375 -3.75 L 7.375 -7.921875 C 7.375 -8.253906 7.335938 -8.507812 7.265625 -8.6875 C 7.191406 -8.863281 7.0625 -8.992188 6.875 -9.078125 C 6.695312 -9.160156 6.457031 -9.207031 6.15625 -9.21875 L 6.15625 -9.484375 C 6.320312 -9.472656 6.535156 -9.460938 6.796875 -9.453125 C 7.054688 -9.441406 7.300781 -9.4375 7.53125 -9.4375 C 7.757812 -9.4375 7.988281 -9.441406 8.21875 -9.453125 C 8.445312 -9.460938 8.628906 -9.472656 8.765625 -9.484375 Z M 8.765625 -9.484375 "/></g></g></g><g fill="#4a4a4a" fill-opacity="1"><g transform="translate(27.595624, 13.127302)"><g/></g></g><g fill="#4a4a4a" fill-opacity="1"><g transform="translate(30.930565, 13.127302)"><g><path d="M 4.328125 -9.546875 L 7.59375 -1.125 C 7.726562 -0.78125 7.878906 -0.550781 8.046875 -0.4375 C 8.210938 -0.332031 8.367188 -0.273438 8.515625 -0.265625 L 8.515625 0 C 8.335938 -0.0195312 8.117188 -0.03125 7.859375 -0.03125 C 7.597656 -0.0390625 7.335938 -0.046875 7.078125 -0.046875 C 6.734375 -0.046875 6.410156 -0.0390625 6.109375 -0.03125 C 5.804688 -0.03125 5.5625 -0.0195312 5.375 0 L 5.375 -0.265625 C 5.820312 -0.285156 6.109375 -0.363281 6.234375 -0.5 C 6.359375 -0.632812 6.332031 -0.929688 6.15625 -1.390625 L 3.671875 -8.046875 L 3.890625 -8.21875 L 1.546875 -2.171875 C 1.410156 -1.816406 1.328125 -1.515625 1.296875 -1.265625 C 1.273438 -1.015625 1.300781 -0.816406 1.375 -0.671875 C 1.445312 -0.535156 1.570312 -0.4375 1.75 -0.375 C 1.9375 -0.3125 2.171875 -0.273438 2.453125 -0.265625 L 2.453125 0 C 2.203125 -0.0195312 1.941406 -0.03125 1.671875 -0.03125 C 1.398438 -0.0390625 1.144531 -0.046875 0.90625 -0.046875 C 0.6875 -0.046875 0.5 -0.0390625 0.34375 -0.03125 C 0.1875 -0.03125 0.0390625 -0.0195312 -0.09375 0 L -0.09375 -0.265625 C 0.0820312 -0.304688 0.265625 -0.410156 0.453125 -0.578125 C 0.640625 -0.742188 0.8125 -1.03125 0.96875 -1.4375 L 4.109375 -9.546875 C 4.148438 -9.546875 4.1875 -9.546875 4.21875 -9.546875 C 4.25 -9.546875 4.285156 -9.546875 4.328125 -9.546875 Z M 5.953125 -3.859375 L 5.953125 -3.59375 L 1.96875 -3.59375 L 2.109375 -3.859375 Z M 5.953125 -3.859375 "/></g></g></g><g fill="#4a4a4a" fill-opacity="1"><g transform="translate(39.368373, 13.127302)"><g><path d="M 0.5625 -9.484375 C 0.75 -9.472656 0.992188 -9.460938 1.296875 -9.453125 C 1.597656 -9.441406 1.898438 -9.4375 2.203125 -9.4375 C 2.617188 -9.4375 3.019531 -9.441406 3.40625 -9.453125 C 3.789062 -9.460938 4.0625 -9.46875 4.21875 -9.46875 C 4.9375 -9.46875 5.535156 -9.363281 6.015625 -9.15625 C 6.492188 -8.945312 6.847656 -8.664062 7.078125 -8.3125 C 7.316406 -7.96875 7.4375 -7.578125 7.4375 -7.140625 C 7.4375 -6.867188 7.382812 -6.582031 7.28125 -6.28125 C 7.175781 -5.976562 6.988281 -5.691406 6.71875 -5.421875 C 6.457031 -5.148438 6.097656 -4.925781 5.640625 -4.75 C 5.191406 -4.582031 4.617188 -4.5 3.921875 -4.5 L 2.640625 -4.5 L 2.640625 -4.765625 L 3.796875 -4.765625 C 4.421875 -4.765625 4.898438 -4.863281 5.234375 -5.0625 C 5.578125 -5.269531 5.804688 -5.539062 5.921875 -5.875 C 6.046875 -6.207031 6.109375 -6.578125 6.109375 -6.984375 C 6.109375 -7.691406 5.941406 -8.238281 5.609375 -8.625 C 5.273438 -9.019531 4.703125 -9.21875 3.890625 -9.21875 C 3.472656 -9.21875 3.203125 -9.140625 3.078125 -8.984375 C 2.953125 -8.828125 2.890625 -8.519531 2.890625 -8.0625 L 2.890625 -1.421875 C 2.890625 -1.097656 2.914062 -0.851562 2.96875 -0.6875 C 3.019531 -0.53125 3.125 -0.425781 3.28125 -0.375 C 3.4375 -0.320312 3.671875 -0.285156 3.984375 -0.265625 L 3.984375 0 C 3.773438 -0.0195312 3.515625 -0.03125 3.203125 -0.03125 C 2.898438 -0.0390625 2.59375 -0.046875 2.28125 -0.046875 C 1.925781 -0.046875 1.597656 -0.0390625 1.296875 -0.03125 C 0.992188 -0.03125 0.75 -0.0195312 0.5625 0 L 0.5625 -0.265625 C 0.863281 -0.285156 1.09375 -0.320312 1.25 -0.375 C 1.40625 -0.425781 1.507812 -0.53125 1.5625 -0.6875 C 1.613281 -0.851562 1.640625 -1.097656 1.640625 -1.421875 L 1.640625 -8.0625 C 1.640625 -8.394531 1.613281 -8.640625 1.5625 -8.796875 C 1.507812 -8.953125 1.40625 -9.054688 1.25 -9.109375 C 1.09375 -9.171875 0.863281 -9.207031 0.5625 -9.21875 Z M 2.6875 -4.734375 C 3.175781 -4.710938 3.554688 -4.691406 3.828125 -4.671875 C 4.109375 -4.648438 4.332031 -4.628906 4.5 -4.609375 C 4.675781 -4.585938 4.847656 -4.566406 5.015625 -4.546875 C 5.609375 -4.441406 6.035156 -4.257812 6.296875 -4 C 6.554688 -3.738281 6.75 -3.328125 6.875 -2.765625 L 7.21875 -1.40625 C 7.300781 -1.007812 7.390625 -0.722656 7.484375 -0.546875 C 7.578125 -0.378906 7.722656 -0.300781 7.921875 -0.3125 C 8.078125 -0.320312 8.207031 -0.367188 8.3125 -0.453125 C 8.414062 -0.546875 8.523438 -0.664062 8.640625 -0.8125 L 8.84375 -0.671875 C 8.65625 -0.390625 8.457031 -0.175781 8.25 -0.03125 C 8.050781 0.113281 7.769531 0.1875 7.40625 0.1875 C 7.070312 0.1875 6.78125 0.0859375 6.53125 -0.109375 C 6.28125 -0.304688 6.09375 -0.691406 5.96875 -1.265625 L 5.671875 -2.59375 C 5.597656 -2.976562 5.507812 -3.3125 5.40625 -3.59375 C 5.300781 -3.875 5.15625 -4.09375 4.96875 -4.25 C 4.789062 -4.414062 4.523438 -4.5 4.171875 -4.5 L 2.71875 -4.5 Z M 2.6875 -4.734375 "/></g></g></g><g fill="#4a4a4a" fill-opacity="1"><g transform="translate(48.047258, 13.127302)"><g><path d="M 7.25 -9.484375 C 7.207031 -9.171875 7.179688 -8.863281 7.171875 -8.5625 C 7.160156 -8.269531 7.15625 -8.050781 7.15625 -7.90625 C 7.15625 -7.738281 7.15625 -7.582031 7.15625 -7.4375 C 7.164062 -7.289062 7.175781 -7.164062 7.1875 -7.0625 L 6.875 -7.0625 C 6.820312 -7.59375 6.742188 -8.007812 6.640625 -8.3125 C 6.546875 -8.625 6.378906 -8.84375 6.140625 -8.96875 C 5.910156 -9.101562 5.5625 -9.171875 5.09375 -9.171875 L 3.984375 -9.171875 C 3.671875 -9.171875 3.4375 -9.144531 3.28125 -9.09375 C 3.125 -9.050781 3.019531 -8.953125 2.96875 -8.796875 C 2.914062 -8.640625 2.890625 -8.394531 2.890625 -8.0625 L 2.890625 -1.421875 C 2.890625 -1.097656 2.914062 -0.851562 2.96875 -0.6875 C 3.019531 -0.53125 3.125 -0.425781 3.28125 -0.375 C 3.4375 -0.332031 3.671875 -0.3125 3.984375 -0.3125 L 4.953125 -0.3125 C 5.515625 -0.3125 5.941406 -0.382812 6.234375 -0.53125 C 6.523438 -0.6875 6.734375 -0.9375 6.859375 -1.28125 C 6.992188 -1.625 7.09375 -2.085938 7.15625 -2.671875 L 7.453125 -2.671875 C 7.429688 -2.429688 7.421875 -2.113281 7.421875 -1.71875 C 7.421875 -1.539062 7.425781 -1.296875 7.4375 -0.984375 C 7.445312 -0.671875 7.472656 -0.34375 7.515625 0 C 7.054688 -0.0195312 6.539062 -0.03125 5.96875 -0.03125 C 5.394531 -0.0390625 4.890625 -0.046875 4.453125 -0.046875 C 4.253906 -0.046875 4 -0.046875 3.6875 -0.046875 C 3.382812 -0.046875 3.050781 -0.0390625 2.6875 -0.03125 C 2.332031 -0.03125 1.972656 -0.0234375 1.609375 -0.015625 C 1.242188 -0.015625 0.894531 -0.0078125 0.5625 0 L 0.5625 -0.265625 C 0.863281 -0.285156 1.09375 -0.320312 1.25 -0.375 C 1.40625 -0.425781 1.507812 -0.53125 1.5625 -0.6875 C 1.613281 -0.851562 1.640625 -1.097656 1.640625 -1.421875 L 1.640625 -8.0625 C 1.640625 -8.394531 1.613281 -8.640625 1.5625 -8.796875 C 1.507812 -8.953125 1.40625 -9.054688 1.25 -9.109375 C 1.09375 -9.171875 0.863281 -9.207031 0.5625 -9.21875 L 0.5625 -9.484375 C 0.894531 -9.472656 1.242188 -9.460938 1.609375 -9.453125 C 1.972656 -9.453125 2.332031 -9.445312 2.6875 -9.4375 C 3.050781 -9.4375 3.382812 -9.4375 3.6875 -9.4375 C 4 -9.4375 4.253906 -9.4375 4.453125 -9.4375 C 4.859375 -9.4375 5.320312 -9.4375 5.84375 -9.4375 C 6.363281 -9.445312 6.832031 -9.460938 7.25 -9.484375 Z M 4.9375 -4.90625 C 4.9375 -4.90625 4.9375 -4.859375 4.9375 -4.765625 C 4.9375 -4.679688 4.9375 -4.640625 4.9375 -4.640625 L 2.484375 -4.640625 C 2.484375 -4.640625 2.484375 -4.679688 2.484375 -4.765625 C 2.484375 -4.859375 2.484375 -4.90625 2.484375 -4.90625 Z M 5.328125 -6.671875 C 5.296875 -6.160156 5.28125 -5.769531 5.28125 -5.5 C 5.289062 -5.238281 5.296875 -4.992188 5.296875 -4.765625 C 5.296875 -4.546875 5.296875 -4.300781 5.296875 -4.03125 C 5.304688 -3.757812 5.332031 -3.367188 5.375 -2.859375 L 5.0625 -2.859375 C 5.03125 -3.148438 4.988281 -3.429688 4.9375 -3.703125 C 4.882812 -3.972656 4.773438 -4.195312 4.609375 -4.375 C 4.441406 -4.550781 4.164062 -4.640625 3.78125 -4.640625 L 3.78125 -4.90625 C 4.070312 -4.90625 4.296875 -4.960938 4.453125 -5.078125 C 4.609375 -5.203125 4.722656 -5.359375 4.796875 -5.546875 C 4.867188 -5.734375 4.914062 -5.925781 4.9375 -6.125 C 4.96875 -6.320312 4.992188 -6.503906 5.015625 -6.671875 Z M 5.328125 -6.671875 "/></g></g></g><g fill="#800020" fill-opacity="1"><g transform="translate(0.62143, 29.055944)"><g><path d="M 4.21875 -16.3125 C 4.25 -16.988281 4.5 -17.507812 4.96875 -17.875 C 5.4375 -18.25 6 -18.4375 6.65625 -18.4375 C 7.238281 -18.4375 7.6875 -18.296875 8 -18.015625 C 8.3125 -17.734375 8.453125 -17.347656 8.421875 -16.859375 C 8.390625 -16.234375 8.132812 -15.726562 7.65625 -15.34375 C 7.175781 -14.957031 6.601562 -14.765625 5.9375 -14.765625 C 5.382812 -14.765625 4.953125 -14.898438 4.640625 -15.171875 C 4.328125 -15.453125 4.1875 -15.832031 4.21875 -16.3125 Z M 3.3125 -10.296875 C 3.582031 -11.097656 3.492188 -11.5 3.046875 -11.5 C 2.765625 -11.5 2.503906 -11.351562 2.265625 -11.0625 C 2.023438 -10.78125 1.78125 -10.296875 1.53125 -9.609375 L 1.046875 -8.390625 L 0.59375 -8.390625 L 1.265625 -10.203125 C 1.484375 -10.835938 1.765625 -11.328125 2.109375 -11.671875 C 2.453125 -12.023438 2.832031 -12.273438 3.25 -12.421875 C 3.675781 -12.578125 4.117188 -12.65625 4.578125 -12.65625 C 5.128906 -12.65625 5.5625 -12.550781 5.875 -12.34375 C 6.195312 -12.144531 6.414062 -11.878906 6.53125 -11.546875 C 6.644531 -11.222656 6.6875 -10.863281 6.65625 -10.46875 C 6.625 -10.082031 6.539062 -9.703125 6.40625 -9.328125 L 3.90625 -2.03125 C 3.769531 -1.601562 3.734375 -1.296875 3.796875 -1.109375 C 3.867188 -0.921875 4.019531 -0.828125 4.25 -0.828125 C 4.445312 -0.828125 4.671875 -0.945312 4.921875 -1.1875 C 5.171875 -1.425781 5.445312 -1.9375 5.75 -2.71875 L 6.171875 -3.859375 L 6.625 -3.859375 L 6.015625 -2.125 C 5.785156 -1.46875 5.492188 -0.960938 5.140625 -0.609375 C 4.796875 -0.265625 4.421875 -0.0234375 4.015625 0.109375 C 3.609375 0.253906 3.203125 0.328125 2.796875 0.328125 C 2.109375 0.328125 1.582031 0.175781 1.21875 -0.125 C 0.863281 -0.425781 0.671875 -0.859375 0.640625 -1.421875 C 0.609375 -1.992188 0.722656 -2.671875 0.984375 -3.453125 Z M 3.3125 -10.296875 "/></g></g></g><g fill="#800020" fill-opacity="1"><g transform="translate(8.298524, 29.055944)"><g><path d="M 3.75 0 L 0.375 0 L 3.265625 -10.296875 C 3.347656 -10.523438 3.398438 -10.726562 3.421875 -10.90625 C 3.441406 -11.09375 3.421875 -11.238281 3.359375 -11.34375 C 3.296875 -11.445312 3.175781 -11.5 3 -11.5 C 2.71875 -11.5 2.460938 -11.363281 2.234375 -11.09375 C 2.003906 -10.832031 1.753906 -10.335938 1.484375 -9.609375 L 1.03125 -8.390625 L 0.578125 -8.390625 L 1.21875 -10.203125 C 1.53125 -11.109375 1.945312 -11.742188 2.46875 -12.109375 C 2.988281 -12.472656 3.597656 -12.65625 4.296875 -12.65625 C 4.867188 -12.65625 5.304688 -12.554688 5.609375 -12.359375 C 5.910156 -12.160156 6.109375 -11.894531 6.203125 -11.5625 C 6.304688 -11.226562 6.347656 -10.863281 6.328125 -10.46875 C 6.304688 -10.082031 6.25 -9.703125 6.15625 -9.328125 Z M 4.5 -4.03125 C 5.125 -5.757812 5.703125 -7.179688 6.234375 -8.296875 C 6.765625 -9.421875 7.285156 -10.300781 7.796875 -10.9375 C 8.316406 -11.570312 8.847656 -12.015625 9.390625 -12.265625 C 9.929688 -12.523438 10.515625 -12.65625 11.140625 -12.65625 C 11.898438 -12.65625 12.445312 -12.488281 12.78125 -12.15625 C 13.113281 -11.820312 13.28125 -11.378906 13.28125 -10.828125 C 13.28125 -10.285156 13.175781 -9.695312 12.96875 -9.0625 L 10.640625 -2.03125 C 10.472656 -1.582031 10.429688 -1.269531 10.515625 -1.09375 C 10.597656 -0.914062 10.738281 -0.828125 10.9375 -0.828125 C 11.144531 -0.828125 11.375 -0.941406 11.625 -1.171875 C 11.882812 -1.410156 12.160156 -1.925781 12.453125 -2.71875 L 12.875 -3.859375 L 13.328125 -3.859375 L 12.734375 -2.125 C 12.515625 -1.457031 12.222656 -0.945312 11.859375 -0.59375 C 11.503906 -0.25 11.125 -0.0078125 10.71875 0.125 C 10.3125 0.257812 9.914062 0.328125 9.53125 0.328125 C 9.070312 0.328125 8.679688 0.257812 8.359375 0.125 C 8.046875 -0.0078125 7.800781 -0.203125 7.625 -0.453125 C 7.414062 -0.773438 7.316406 -1.175781 7.328125 -1.65625 C 7.335938 -2.144531 7.460938 -2.742188 7.703125 -3.453125 L 9.84375 -9.890625 C 9.9375 -10.148438 10 -10.394531 10.03125 -10.625 C 10.0625 -10.863281 10.050781 -11.0625 10 -11.21875 C 9.957031 -11.382812 9.828125 -11.46875 9.609375 -11.46875 C 9.304688 -11.46875 8.960938 -11.269531 8.578125 -10.875 C 8.203125 -10.488281 7.800781 -9.945312 7.375 -9.25 C 6.957031 -8.5625 6.539062 -7.753906 6.125 -6.828125 C 5.71875 -5.910156 5.320312 -4.929688 4.9375 -3.890625 C 4.550781 -2.859375 4.207031 -1.789062 3.90625 -0.6875 Z M 4.5 -4.03125 "/></g></g></g><g fill="#800020" fill-opacity="1"><g transform="translate(22.675191, 29.055944)"><g><path d="M 11.140625 -7.84375 C 10.503906 -8.164062 9.953125 -8.601562 9.484375 -9.15625 C 9.015625 -9.707031 8.785156 -10.351562 8.796875 -11.09375 C 8.816406 -11.59375 8.96875 -11.976562 9.25 -12.25 C 9.539062 -12.519531 9.90625 -12.65625 10.34375 -12.65625 C 10.945312 -12.65625 11.375 -12.410156 11.625 -11.921875 C 11.882812 -11.429688 11.992188 -10.765625 11.953125 -9.921875 C 11.898438 -9.023438 11.757812 -8.097656 11.53125 -7.140625 C 11.300781 -6.179688 10.984375 -5.253906 10.578125 -4.359375 C 10.171875 -3.472656 9.660156 -2.675781 9.046875 -1.96875 C 8.429688 -1.257812 7.722656 -0.695312 6.921875 -0.28125 C 6.117188 0.125 5.210938 0.328125 4.203125 0.328125 C 3.328125 0.328125 2.640625 0.179688 2.140625 -0.109375 C 1.648438 -0.398438 1.304688 -0.769531 1.109375 -1.21875 C 0.910156 -1.675781 0.816406 -2.144531 0.828125 -2.625 C 0.847656 -3.59375 1.132812 -4.582031 1.6875 -5.59375 C 2.25 -6.613281 3.007812 -7.632812 3.96875 -8.65625 C 4.925781 -9.6875 6.007812 -10.695312 7.21875 -11.6875 C 6.820312 -11.632812 6.460938 -11.503906 6.140625 -11.296875 C 5.828125 -11.085938 5.535156 -10.863281 5.265625 -10.625 C 4.992188 -10.394531 4.726562 -10.191406 4.46875 -10.015625 C 4.207031 -9.835938 3.929688 -9.75 3.640625 -9.75 C 3.378906 -9.75 3.144531 -9.820312 2.9375 -9.96875 C 2.738281 -10.125 2.519531 -10.203125 2.28125 -10.203125 C 2.0625 -10.203125 1.882812 -10.113281 1.75 -9.9375 C 1.613281 -9.769531 1.472656 -9.476562 1.328125 -9.0625 L 1.140625 -8.421875 L 0.6875 -8.421875 L 1.21875 -10.15625 C 1.488281 -11.144531 1.828125 -11.8125 2.234375 -12.15625 C 2.640625 -12.507812 3.046875 -12.6875 3.453125 -12.6875 C 3.753906 -12.6875 4.007812 -12.617188 4.21875 -12.484375 C 4.4375 -12.347656 4.671875 -12.210938 4.921875 -12.078125 C 5.171875 -11.953125 5.492188 -11.890625 5.890625 -11.890625 C 6.140625 -11.890625 6.410156 -11.925781 6.703125 -12 C 7.003906 -12.070312 7.3125 -12.207031 7.625 -12.40625 L 7.875 -12.859375 L 8.375 -12.609375 C 7.800781 -11.785156 7.28125 -10.941406 6.8125 -10.078125 C 6.351562 -9.210938 5.957031 -8.34375 5.625 -7.46875 C 5.289062 -6.601562 5.023438 -5.769531 4.828125 -4.96875 C 4.640625 -4.164062 4.53125 -3.421875 4.5 -2.734375 C 4.46875 -2.035156 4.539062 -1.523438 4.71875 -1.203125 C 4.894531 -0.890625 5.179688 -0.734375 5.578125 -0.734375 C 6.171875 -0.734375 6.726562 -0.878906 7.25 -1.171875 C 7.769531 -1.472656 8.242188 -1.875 8.671875 -2.375 C 9.109375 -2.875 9.492188 -3.425781 9.828125 -4.03125 C 10.160156 -4.644531 10.4375 -5.28125 10.65625 -5.9375 C 10.875 -6.601562 11.035156 -7.238281 11.140625 -7.84375 Z M 11.140625 -7.84375 "/></g></g></g><g fill="#800020" fill-opacity="1"><g transform="translate(35.192194, 29.055944)"><g><path d="M 4.21875 -16.3125 C 4.25 -16.988281 4.5 -17.507812 4.96875 -17.875 C 5.4375 -18.25 6 -18.4375 6.65625 -18.4375 C 7.238281 -18.4375 7.6875 -18.296875 8 -18.015625 C 8.3125 -17.734375 8.453125 -17.347656 8.421875 -16.859375 C 8.390625 -16.234375 8.132812 -15.726562 7.65625 -15.34375 C 7.175781 -14.957031 6.601562 -14.765625 5.9375 -14.765625 C 5.382812 -14.765625 4.953125 -14.898438 4.640625 -15.171875 C 4.328125 -15.453125 4.1875 -15.832031 4.21875 -16.3125 Z M 3.3125 -10.296875 C 3.582031 -11.097656 3.492188 -11.5 3.046875 -11.5 C 2.765625 -11.5 2.503906 -11.351562 2.265625 -11.0625 C 2.023438 -10.78125 1.78125 -10.296875 1.53125 -9.609375 L 1.046875 -8.390625 L 0.59375 -8.390625 L 1.265625 -10.203125 C 1.484375 -10.835938 1.765625 -11.328125 2.109375 -11.671875 C 2.453125 -12.023438 2.832031 -12.273438 3.25 -12.421875 C 3.675781 -12.578125 4.117188 -12.65625 4.578125 -12.65625 C 5.128906 -12.65625 5.5625 -12.550781 5.875 -12.34375 C 6.195312 -12.144531 6.414062 -11.878906 6.53125 -11.546875 C 6.644531 -11.222656 6.6875 -10.863281 6.65625 -10.46875 C 6.625 -10.082031 6.539062 -9.703125 6.40625 -9.328125 L 3.90625 -2.03125 C 3.769531 -1.601562 3.734375 -1.296875 3.796875 -1.109375 C 3.867188 -0.921875 4.019531 -0.828125 4.25 -0.828125 C 4.445312 -0.828125 4.671875 -0.945312 4.921875 -1.1875 C 5.171875 -1.425781 5.445312 -1.9375 5.75 -2.71875 L 6.171875 -3.859375 L 6.625 -3.859375 L 6.015625 -2.125 C 5.785156 -1.46875 5.492188 -0.960938 5.140625 -0.609375 C 4.796875 -0.265625 4.421875 -0.0234375 4.015625 0.109375 C 3.609375 0.253906 3.203125 0.328125 2.796875 0.328125 C 2.109375 0.328125 1.582031 0.175781 1.21875 -0.125 C 0.863281 -0.425781 0.671875 -0.859375 0.640625 -1.421875 C 0.609375 -1.992188 0.722656 -2.671875 0.984375 -3.453125 Z M 3.3125 -10.296875 "/></g></g></g><g fill="#800020" fill-opacity="1"><g transform="translate(42.869288, 29.055944)"><g><path d="M 9.578125 -12.328125 L 9.515625 -11.84375 L 1.234375 -11.84375 L 1.359375 -12.328125 Z M 3.90625 -2.03125 C 3.800781 -1.613281 3.816406 -1.304688 3.953125 -1.109375 C 4.085938 -0.921875 4.285156 -0.828125 4.546875 -0.828125 C 4.890625 -0.828125 5.226562 -0.992188 5.5625 -1.328125 C 5.894531 -1.671875 6.1875 -2.191406 6.4375 -2.890625 L 6.796875 -3.859375 L 7.25 -3.859375 L 6.765625 -2.484375 C 6.453125 -1.523438 5.988281 -0.816406 5.375 -0.359375 C 4.757812 0.0976562 4.03125 0.328125 3.1875 0.328125 C 2.457031 0.328125 1.894531 0.160156 1.5 -0.171875 C 1.101562 -0.503906 0.867188 -0.957031 0.796875 -1.53125 C 0.722656 -2.113281 0.785156 -2.753906 0.984375 -3.453125 L 4.546875 -15.875 C 5.234375 -15.894531 5.851562 -15.925781 6.40625 -15.96875 C 6.96875 -16.019531 7.503906 -16.101562 8.015625 -16.21875 Z M 3.90625 -2.03125 "/></g></g></g><g fill="#800020" fill-opacity="1"><g transform="translate(51.285487, 29.055944)"><g><path d="M 3.125 -5.171875 C 3.769531 -5.429688 4.382812 -5.71875 4.96875 -6.03125 C 5.5625 -6.351562 6.066406 -6.703125 6.484375 -7.078125 C 7.109375 -7.640625 7.601562 -8.289062 7.96875 -9.03125 C 8.34375 -9.769531 8.53125 -10.566406 8.53125 -11.421875 C 8.53125 -11.734375 8.5 -11.941406 8.4375 -12.046875 C 8.375 -12.148438 8.28125 -12.203125 8.15625 -12.203125 C 7.800781 -12.203125 7.421875 -12.023438 7.015625 -11.671875 C 6.609375 -11.316406 6.207031 -10.835938 5.8125 -10.234375 C 5.414062 -9.640625 5.054688 -8.960938 4.734375 -8.203125 C 4.410156 -7.441406 4.144531 -6.644531 3.9375 -5.8125 C 3.738281 -4.988281 3.640625 -4.1875 3.640625 -3.40625 C 3.640625 -2.519531 3.8125 -1.910156 4.15625 -1.578125 C 4.5 -1.253906 4.941406 -1.09375 5.484375 -1.09375 C 5.910156 -1.09375 6.441406 -1.234375 7.078125 -1.515625 C 7.710938 -1.804688 8.34375 -2.316406 8.96875 -3.046875 L 9.34375 -2.859375 C 9.007812 -2.335938 8.570312 -1.828125 8.03125 -1.328125 C 7.488281 -0.835938 6.859375 -0.4375 6.140625 -0.125 C 5.429688 0.175781 4.65625 0.328125 3.8125 0.328125 C 3.09375 0.328125 2.453125 0.203125 1.890625 -0.046875 C 1.328125 -0.296875 0.882812 -0.671875 0.5625 -1.171875 C 0.238281 -1.679688 0.078125 -2.300781 0.078125 -3.03125 C 0.078125 -3.875 0.210938 -4.738281 0.484375 -5.625 C 0.765625 -6.519531 1.160156 -7.382812 1.671875 -8.21875 C 2.179688 -9.050781 2.789062 -9.804688 3.5 -10.484375 C 4.21875 -11.160156 5.015625 -11.691406 5.890625 -12.078125 C 6.765625 -12.460938 7.691406 -12.65625 8.671875 -12.65625 C 9.378906 -12.65625 9.96875 -12.5 10.4375 -12.1875 C 10.914062 -11.882812 11.15625 -11.414062 11.15625 -10.78125 C 11.15625 -10.15625 10.984375 -9.570312 10.640625 -9.03125 C 10.304688 -8.488281 9.851562 -7.992188 9.28125 -7.546875 C 8.707031 -7.109375 8.066406 -6.710938 7.359375 -6.359375 C 6.648438 -6.015625 5.925781 -5.710938 5.1875 -5.453125 C 4.445312 -5.203125 3.75 -5.003906 3.09375 -4.859375 Z M 3.125 -5.171875 "/></g></g></g><g fill="#800020" fill-opacity="1"><g transform="translate(62.467341, 29.055944)"><g><path d="M 10.109375 -2.03125 C 9.960938 -1.644531 9.925781 -1.347656 10 -1.140625 C 10.070312 -0.929688 10.21875 -0.828125 10.4375 -0.828125 C 10.644531 -0.828125 10.875 -0.953125 11.125 -1.203125 C 11.375 -1.453125 11.628906 -1.957031 11.890625 -2.71875 L 12.296875 -3.859375 L 12.75 -3.859375 L 12.1875 -2.125 C 11.976562 -1.46875 11.695312 -0.960938 11.34375 -0.609375 C 11 -0.253906 10.625 -0.0078125 10.21875 0.125 C 9.8125 0.257812 9.414062 0.328125 9.03125 0.328125 C 8.050781 0.328125 7.425781 -0.0351562 7.15625 -0.765625 C 7.007812 -1.066406 6.941406 -1.441406 6.953125 -1.890625 C 6.972656 -2.347656 7.070312 -2.867188 7.25 -3.453125 L 10.5625 -15.90625 C 10.71875 -16.445312 10.703125 -16.84375 10.515625 -17.09375 C 10.328125 -17.351562 9.84375 -17.484375 9.0625 -17.484375 L 9.203125 -17.984375 C 10.328125 -17.992188 11.332031 -18.082031 12.21875 -18.25 C 13.113281 -18.414062 13.96875 -18.648438 14.78125 -18.953125 Z M 4.390625 -0.859375 C 4.660156 -0.859375 4.976562 -1.03125 5.34375 -1.375 C 5.707031 -1.726562 6.09375 -2.25 6.5 -2.9375 C 6.914062 -3.632812 7.316406 -4.488281 7.703125 -5.5 C 8.085938 -6.507812 8.429688 -7.664062 8.734375 -8.96875 L 8.375 -6.390625 C 7.84375 -4.859375 7.316406 -3.59375 6.796875 -2.59375 C 6.285156 -1.59375 5.722656 -0.851562 5.109375 -0.375 C 4.503906 0.09375 3.78125 0.328125 2.9375 0.328125 C 2.40625 0.328125 1.925781 0.210938 1.5 -0.015625 C 1.070312 -0.253906 0.726562 -0.617188 0.46875 -1.109375 C 0.21875 -1.597656 0.09375 -2.226562 0.09375 -3 C 0.09375 -3.726562 0.207031 -4.523438 0.4375 -5.390625 C 0.664062 -6.265625 1.003906 -7.125 1.453125 -7.96875 C 1.910156 -8.8125 2.460938 -9.585938 3.109375 -10.296875 C 3.753906 -11.015625 4.488281 -11.585938 5.3125 -12.015625 C 6.144531 -12.441406 7.050781 -12.65625 8.03125 -12.65625 C 8.539062 -12.65625 8.914062 -12.539062 9.15625 -12.3125 C 9.40625 -12.082031 9.554688 -11.757812 9.609375 -11.34375 L 9.421875 -10.875 C 9.359375 -11.289062 9.242188 -11.597656 9.078125 -11.796875 C 8.921875 -12.003906 8.6875 -12.109375 8.375 -12.109375 C 7.957031 -12.109375 7.523438 -11.921875 7.078125 -11.546875 C 6.628906 -11.171875 6.203125 -10.660156 5.796875 -10.015625 C 5.398438 -9.378906 5.035156 -8.648438 4.703125 -7.828125 C 4.367188 -7.015625 4.101562 -6.148438 3.90625 -5.234375 C 3.71875 -4.316406 3.625 -3.40625 3.625 -2.5 C 3.625 -1.957031 3.679688 -1.546875 3.796875 -1.265625 C 3.921875 -0.992188 4.117188 -0.859375 4.390625 -0.859375 Z M 4.390625 -0.859375 "/></g></g></g><g fill="#800020" fill-opacity="1"><g transform="translate(76.271811, 29.055944)"><g><path d="M 2.84375 -4.75 C 3.15625 -5.988281 3.367188 -7.207031 3.484375 -8.40625 C 3.609375 -9.601562 3.695312 -10.753906 3.75 -11.859375 C 3.8125 -12.960938 3.890625 -13.984375 3.984375 -14.921875 C 3.992188 -15.335938 4.046875 -15.765625 4.140625 -16.203125 C 4.242188 -16.648438 4.390625 -17.054688 4.578125 -17.421875 C 4.765625 -17.796875 5.007812 -18.09375 5.3125 -18.3125 C 5.613281 -18.53125 6 -18.640625 6.46875 -18.640625 C 7.019531 -18.640625 7.429688 -18.472656 7.703125 -18.140625 C 7.984375 -17.804688 8.101562 -17.335938 8.0625 -16.734375 C 7.976562 -15.992188 7.753906 -15.171875 7.390625 -14.265625 C 7.023438 -13.367188 6.582031 -12.410156 6.0625 -11.390625 C 5.550781 -10.378906 5.039062 -9.3125 4.53125 -8.1875 C 4.019531 -7.070312 3.597656 -5.898438 3.265625 -4.671875 Z M 0.578125 -1.09375 C 0.578125 -1.726562 0.800781 -2.257812 1.25 -2.6875 C 1.707031 -3.125 2.253906 -3.34375 2.890625 -3.34375 C 3.390625 -3.34375 3.78125 -3.210938 4.0625 -2.953125 C 4.351562 -2.703125 4.5 -2.347656 4.5 -1.890625 C 4.5 -1.503906 4.394531 -1.140625 4.1875 -0.796875 C 3.988281 -0.453125 3.707031 -0.179688 3.34375 0.015625 C 2.988281 0.222656 2.597656 0.328125 2.171875 0.328125 C 1.679688 0.328125 1.289062 0.203125 1 -0.046875 C 0.71875 -0.296875 0.578125 -0.644531 0.578125 -1.09375 Z M 0.578125 -1.09375 "/></g></g></g></svg>