<svg xmlns="http://www.w3.org/2000/svg" xmlns:xlink="http://www.w3.org/1999/xlink" width="203" zoomAndPan="magnify" viewBox="0 0 152.25 34.499999" height="46" preserveAspectRatio="xMidYMid meet" version="1.0"><defs><g/><clipPath id="d7764ae274"><path d="M 0.71875 0 L 150.792969 0 L 150.792969 34.007812 L 0.71875 34.007812 Z M 0.71875 0 " clip-rule="nonzero"/></clipPath></defs><g clip-path="url(#d7764ae274)"><path fill="#fefaed" d="M 133.789062 0 L 17.722656 0 C 8.414062 0 0.839844 7.628906 0.839844 17.003906 C 0.839844 26.382812 8.414062 34.007812 17.722656 34.007812 L 133.789062 34.007812 C 143.097656 34.007812 150.671875 26.378906 150.671875 17.003906 C 150.671875 7.628906 143.097656 0 133.789062 0 Z M 133.789062 32.980469 L 17.722656 32.980469 C 8.976562 32.980469 1.859375 25.8125 1.859375 17.003906 C 1.859375 8.195312 8.976562 1.027344 17.722656 1.027344 L 133.789062 1.027344 C 142.535156 1.027344 149.648438 8.195312 149.648438 17.003906 C 149.648438 25.8125 142.535156 32.980469 133.789062 32.980469 Z M 133.789062 32.980469 " fill-opacity="1" fill-rule="nonzero"/></g><g fill="#ffffff" fill-opacity="1"><g transform="translate(59.712943, 21.279404)"><g><path d="M 6.359375 0 L 3.875 -4.125 L 1.75 -4.125 L 1.75 0 L 1.125 0 L 1.125 -9.6875 L 3.796875 -9.6875 C 4.867188 -9.6875 5.671875 -9.429688 6.203125 -8.921875 C 6.742188 -8.421875 7.015625 -7.75 7.015625 -6.90625 C 7.015625 -6.164062 6.804688 -5.550781 6.390625 -5.0625 C 5.972656 -4.582031 5.363281 -4.289062 4.5625 -4.1875 L 7.109375 0 Z M 1.75 -4.65625 L 3.828125 -4.65625 C 4.679688 -4.65625 5.316406 -4.859375 5.734375 -5.265625 C 6.160156 -5.679688 6.375 -6.226562 6.375 -6.90625 C 6.375 -8.394531 5.515625 -9.140625 3.796875 -9.140625 L 1.75 -9.140625 Z M 1.75 -4.65625 "/></g></g></g><g fill="#ffffff" fill-opacity="1"><g transform="translate(67.450422, 21.279404)"><g><path d="M 3.9375 0.09375 C 3.3125 0.09375 2.765625 -0.015625 2.296875 -0.234375 C 1.828125 -0.453125 1.457031 -0.75 1.1875 -1.125 C 0.925781 -1.507812 0.78125 -1.929688 0.75 -2.390625 L 1.390625 -2.390625 C 1.460938 -1.878906 1.695312 -1.425781 2.09375 -1.03125 C 2.5 -0.632812 3.113281 -0.4375 3.9375 -0.4375 C 4.414062 -0.4375 4.832031 -0.523438 5.1875 -0.703125 C 5.539062 -0.878906 5.8125 -1.117188 6 -1.421875 C 6.195312 -1.722656 6.296875 -2.054688 6.296875 -2.421875 C 6.296875 -2.890625 6.179688 -3.257812 5.953125 -3.53125 C 5.722656 -3.8125 5.441406 -4.019531 5.109375 -4.15625 C 4.773438 -4.300781 4.320312 -4.453125 3.75 -4.609375 C 3.125 -4.773438 2.617188 -4.941406 2.234375 -5.109375 C 1.859375 -5.273438 1.539062 -5.53125 1.28125 -5.875 C 1.019531 -6.21875 0.890625 -6.6875 0.890625 -7.28125 C 0.890625 -7.738281 1.007812 -8.160156 1.25 -8.546875 C 1.488281 -8.929688 1.832031 -9.234375 2.28125 -9.453125 C 2.738281 -9.671875 3.257812 -9.78125 3.84375 -9.78125 C 4.695312 -9.78125 5.382812 -9.566406 5.90625 -9.140625 C 6.4375 -8.722656 6.753906 -8.207031 6.859375 -7.59375 L 6.1875 -7.59375 C 6.132812 -7.832031 6.015625 -8.082031 5.828125 -8.34375 C 5.640625 -8.601562 5.375 -8.816406 5.03125 -8.984375 C 4.6875 -9.160156 4.273438 -9.25 3.796875 -9.25 C 3.148438 -9.25 2.601562 -9.070312 2.15625 -8.71875 C 1.71875 -8.363281 1.5 -7.890625 1.5 -7.296875 C 1.5 -6.828125 1.613281 -6.453125 1.84375 -6.171875 C 2.070312 -5.890625 2.351562 -5.675781 2.6875 -5.53125 C 3.03125 -5.394531 3.488281 -5.253906 4.0625 -5.109375 C 4.695312 -4.929688 5.195312 -4.757812 5.5625 -4.59375 C 5.9375 -4.4375 6.253906 -4.1875 6.515625 -3.84375 C 6.773438 -3.5 6.90625 -3.03125 6.90625 -2.4375 C 6.90625 -2.007812 6.789062 -1.601562 6.5625 -1.21875 C 6.332031 -0.832031 5.992188 -0.515625 5.546875 -0.265625 C 5.109375 -0.0234375 4.570312 0.09375 3.9375 0.09375 Z M 3.9375 0.09375 "/></g></g></g><g fill="#ffffff" fill-opacity="1"><g transform="translate(75.091361, 21.279404)"><g><path d="M 8.4375 -9.6875 L 4.75 0 L 4.0625 0 L 0.375 -9.6875 L 1.046875 -9.6875 L 4.40625 -0.734375 L 7.78125 -9.6875 Z M 8.4375 -9.6875 "/></g></g></g><g fill="#ffffff" fill-opacity="1"><g transform="translate(83.904638, 21.279404)"><g><path d="M 7 -6.953125 C 7 -6.097656 6.726562 -5.429688 6.1875 -4.953125 C 5.65625 -4.484375 4.867188 -4.25 3.828125 -4.25 L 1.75 -4.25 L 1.75 0 L 1.125 0 L 1.125 -9.6875 L 3.828125 -9.6875 C 4.890625 -9.6875 5.679688 -9.4375 6.203125 -8.9375 C 6.734375 -8.445312 7 -7.785156 7 -6.953125 Z M 3.828125 -4.796875 C 5.523438 -4.796875 6.375 -5.515625 6.375 -6.953125 C 6.375 -7.660156 6.171875 -8.203125 5.765625 -8.578125 C 5.359375 -8.953125 4.710938 -9.140625 3.828125 -9.140625 L 1.75 -9.140625 L 1.75 -4.796875 Z M 3.828125 -4.796875 "/></g></g></g></svg>