<?xml version="1.0" encoding="UTF-8" standalone="no"?>
<!DOCTYPE svg PUBLIC "-//W3C//DTD SVG 1.1//EN" "http://www.w3.org/Graphics/SVG/1.1/DTD/svg11.dtd">
<svg width="100%" height="100%" viewBox="0 0 203 46" version="1.1" xmlns="http://www.w3.org/2000/svg" xmlns:xlink="http://www.w3.org/1999/xlink" xml:space="preserve" xmlns:serif="http://www.serif.com/" style="fill-rule:evenodd;clip-rule:evenodd;stroke-linecap:round;stroke-linejoin:round;stroke-miterlimit:1.5;">
    <g transform="matrix(1.22557,0,0,2.35408,-17.7032,-34.2043)">
        <path d="M173.712,24.3C173.712,19.242 165.824,15.136 156.109,15.136L38.418,15.136C28.703,15.136 20.816,19.242 20.816,24.3C20.816,29.358 28.703,33.464 38.418,33.464L156.109,33.464C165.824,33.464 173.712,29.358 173.712,24.3Z" style="fill:rgb(74,74,74);stroke:rgb(74,74,74);stroke-width:0.53px;"/>
    </g>
    <g transform="matrix(1.53315,0,0,1.53315,-43.1929,0.823057)">
        <path d="M85.85,18.677L83.69,15.089L81.842,15.089L81.842,18.677L81.302,18.677L81.302,10.253L83.618,10.253C84.554,10.253 85.256,10.473 85.724,10.913C86.192,11.353 86.426,11.937 86.426,12.665C86.426,13.313 86.244,13.847 85.88,14.267C85.516,14.687 84.986,14.945 84.29,15.041L86.498,18.677L85.85,18.677ZM81.842,14.633L83.642,14.633C84.386,14.633 84.942,14.453 85.31,14.093C85.678,13.733 85.862,13.257 85.862,12.665C85.862,11.377 85.114,10.733 83.618,10.733L81.842,10.733L81.842,14.633Z" style="fill:rgb(250,243,224);fill-rule:nonzero;"/>
        <path d="M90.47,18.761C89.926,18.761 89.45,18.665 89.042,18.473C88.634,18.281 88.316,18.021 88.088,17.693C87.86,17.365 87.73,17.001 87.698,16.601L88.262,16.601C88.326,17.041 88.532,17.433 88.88,17.777C89.228,18.121 89.758,18.293 90.47,18.293C90.886,18.293 91.248,18.217 91.556,18.065C91.864,17.913 92.102,17.705 92.27,17.441C92.438,17.177 92.522,16.885 92.522,16.565C92.522,16.157 92.424,15.833 92.228,15.593C92.032,15.353 91.788,15.173 91.496,15.053C91.204,14.933 90.81,14.805 90.314,14.669C89.77,14.525 89.332,14.381 89,14.237C88.668,14.093 88.388,13.871 88.16,13.571C87.932,13.271 87.818,12.861 87.818,12.341C87.818,11.941 87.924,11.575 88.136,11.243C88.348,10.911 88.65,10.649 89.042,10.457C89.434,10.265 89.886,10.169 90.398,10.169C91.142,10.169 91.742,10.353 92.198,10.721C92.654,11.089 92.926,11.541 93.014,12.077L92.438,12.077C92.39,11.861 92.284,11.641 92.12,11.417C91.956,11.193 91.724,11.007 91.424,10.859C91.124,10.711 90.766,10.637 90.35,10.637C89.79,10.637 89.318,10.791 88.934,11.099C88.55,11.407 88.358,11.817 88.358,12.329C88.358,12.737 88.458,13.063 88.658,13.307C88.858,13.551 89.104,13.735 89.396,13.859C89.688,13.983 90.082,14.109 90.578,14.237C91.13,14.389 91.568,14.535 91.892,14.675C92.216,14.815 92.492,15.035 92.72,15.335C92.948,15.635 93.062,16.041 93.062,16.553C93.062,16.929 92.962,17.285 92.762,17.621C92.562,17.957 92.268,18.231 91.88,18.443C91.492,18.655 91.022,18.761 90.47,18.761Z" style="fill:rgb(250,243,224);fill-rule:nonzero;"/>
        <path d="M101.042,10.253L97.826,18.677L97.226,18.677L94.022,10.253L94.61,10.253L97.526,18.041L100.466,10.253L101.042,10.253Z" style="fill:rgb(250,243,224);fill-rule:nonzero;"/>
        <path d="M107.45,12.629C107.45,13.373 107.218,13.951 106.754,14.363C106.29,14.775 105.602,14.981 104.69,14.981L102.89,14.981L102.89,18.677L102.35,18.677L102.35,10.253L104.69,10.253C105.618,10.253 106.31,10.467 106.766,10.895C107.222,11.323 107.45,11.901 107.45,12.629ZM104.69,14.501C106.17,14.501 106.91,13.877 106.91,12.629C106.91,12.013 106.734,11.543 106.382,11.219C106.03,10.895 105.466,10.733 104.69,10.733L102.89,10.733L102.89,14.501L104.69,14.501Z" style="fill:rgb(250,243,224);fill-rule:nonzero;"/>
    </g>
</svg>
