<svg xmlns="http://www.w3.org/2000/svg" xmlns:xlink="http://www.w3.org/1999/xlink" width="203" zoomAndPan="magnify" viewBox="0 0 152.25 34.499999" height="46" preserveAspectRatio="xMidYMid meet" version="1.0"><defs><g/><clipPath id="dcaa1d8eae"><path d="M 0.941406 0 L 150.652344 0 L 150.652344 34.007812 L 0.941406 34.007812 Z M 0.941406 0 " clip-rule="nonzero"/></clipPath><clipPath id="80c3428306"><path d="M 17.945312 0 L 133.566406 0 C 142.957031 0 150.566406 7.613281 150.566406 17.003906 C 150.566406 26.394531 142.957031 34.007812 133.566406 34.007812 L 17.945312 34.007812 C 8.554688 34.007812 0.941406 26.394531 0.941406 17.003906 C 0.941406 7.613281 8.554688 0 17.945312 0 Z M 17.945312 0 " clip-rule="nonzero"/></clipPath></defs><g clip-path="url(#dcaa1d8eae)"><g clip-path="url(#80c3428306)"><path fill="#4a4a4a" d="M 0.941406 0 L 150.519531 0 L 150.519531 34.007812 L 0.941406 34.007812 Z M 0.941406 0 " fill-opacity="1" fill-rule="nonzero"/></g></g><g fill="#faf3e0" fill-opacity="1"><g transform="translate(41.236389, 24.505145)"><g><path d="M 13.828125 0 L 8.4375 -8.96875 L 3.8125 -8.96875 L 3.8125 0 L 2.453125 0 L 2.453125 -21.0625 L 8.25 -21.0625 C 10.59375 -21.0625 12.347656 -20.507812 13.515625 -19.40625 C 14.679688 -18.3125 15.265625 -16.851562 15.265625 -15.03125 C 15.265625 -13.40625 14.8125 -12.066406 13.90625 -11.015625 C 13 -9.972656 11.675781 -9.332031 9.9375 -9.09375 L 15.453125 0 Z M 3.8125 -10.109375 L 8.3125 -10.109375 C 10.164062 -10.109375 11.550781 -10.554688 12.46875 -11.453125 C 13.394531 -12.359375 13.859375 -13.550781 13.859375 -15.03125 C 13.859375 -18.25 11.988281 -19.859375 8.25 -19.859375 L 3.8125 -19.859375 Z M 3.8125 -10.109375 "/></g></g></g><g fill="#faf3e0" fill-opacity="1"><g transform="translate(58.070024, 24.505145)"><g><path d="M 8.546875 0.203125 C 7.191406 0.203125 6.003906 -0.0351562 4.984375 -0.515625 C 3.960938 -0.992188 3.164062 -1.640625 2.59375 -2.453125 C 2.019531 -3.273438 1.695312 -4.1875 1.625 -5.1875 L 3.03125 -5.1875 C 3.1875 -4.09375 3.695312 -3.113281 4.5625 -2.25 C 5.4375 -1.382812 6.765625 -0.953125 8.546875 -0.953125 C 9.585938 -0.953125 10.492188 -1.140625 11.265625 -1.515625 C 12.035156 -1.898438 12.628906 -2.421875 13.046875 -3.078125 C 13.472656 -3.742188 13.6875 -4.476562 13.6875 -5.28125 C 13.6875 -6.300781 13.4375 -7.109375 12.9375 -7.703125 C 12.445312 -8.304688 11.835938 -8.757812 11.109375 -9.0625 C 10.378906 -9.363281 9.394531 -9.679688 8.15625 -10.015625 C 6.800781 -10.378906 5.707031 -10.738281 4.875 -11.09375 C 4.039062 -11.457031 3.335938 -12.015625 2.765625 -12.765625 C 2.203125 -13.515625 1.921875 -14.539062 1.921875 -15.84375 C 1.921875 -16.84375 2.1875 -17.753906 2.71875 -18.578125 C 3.25 -19.410156 4.003906 -20.066406 4.984375 -20.546875 C 5.960938 -21.023438 7.09375 -21.265625 8.375 -21.265625 C 10.226562 -21.265625 11.722656 -20.804688 12.859375 -19.890625 C 14.003906 -18.972656 14.6875 -17.84375 14.90625 -16.5 L 13.46875 -16.5 C 13.351562 -17.039062 13.085938 -17.585938 12.671875 -18.140625 C 12.265625 -18.703125 11.6875 -19.164062 10.9375 -19.53125 C 10.1875 -19.90625 9.289062 -20.09375 8.25 -20.09375 C 6.851562 -20.09375 5.671875 -19.707031 4.703125 -18.9375 C 3.742188 -18.175781 3.265625 -17.15625 3.265625 -15.875 C 3.265625 -14.851562 3.515625 -14.035156 4.015625 -13.421875 C 4.515625 -12.816406 5.128906 -12.359375 5.859375 -12.046875 C 6.585938 -11.734375 7.570312 -11.414062 8.8125 -11.09375 C 10.195312 -10.71875 11.289062 -10.351562 12.09375 -10 C 12.90625 -9.65625 13.597656 -9.109375 14.171875 -8.359375 C 14.742188 -7.609375 15.03125 -6.59375 15.03125 -5.3125 C 15.03125 -4.375 14.78125 -3.484375 14.28125 -2.640625 C 13.78125 -1.796875 13.046875 -1.109375 12.078125 -0.578125 C 11.109375 -0.0546875 9.929688 0.203125 8.546875 0.203125 Z M 8.546875 0.203125 "/></g></g></g><g fill="#faf3e0" fill-opacity="1"><g transform="translate(74.693617, 24.505145)"><g><path d="M 18.359375 -21.0625 L 10.3125 0 L 8.8125 0 L 0.8125 -21.0625 L 2.28125 -21.0625 L 9.5625 -1.59375 L 16.921875 -21.0625 Z M 18.359375 -21.0625 "/></g></g></g><g fill="#faf3e0" fill-opacity="1"><g transform="translate(93.867793, 24.505145)"><g><path d="M 15.203125 -15.125 C 15.203125 -13.257812 14.625 -11.8125 13.46875 -10.78125 C 12.3125 -9.75 10.59375 -9.234375 8.3125 -9.234375 L 3.8125 -9.234375 L 3.8125 0 L 2.453125 0 L 2.453125 -21.0625 L 8.3125 -21.0625 C 10.632812 -21.0625 12.363281 -20.523438 13.5 -19.453125 C 14.632812 -18.378906 15.203125 -16.9375 15.203125 -15.125 Z M 8.3125 -10.4375 C 12.007812 -10.4375 13.859375 -12 13.859375 -15.125 C 13.859375 -16.664062 13.414062 -17.835938 12.53125 -18.640625 C 11.65625 -19.453125 10.25 -19.859375 8.3125 -19.859375 L 3.8125 -19.859375 L 3.8125 -10.4375 Z M 8.3125 -10.4375 "/></g></g></g></svg>