<svg xmlns="http://www.w3.org/2000/svg" xmlns:xlink="http://www.w3.org/1999/xlink" width="104" zoomAndPan="magnify" viewBox="0 0 78 119.999999" height="160" preserveAspectRatio="xMidYMid meet" version="1.0"><path fill="#4a4a4a" d="M 26.023438 13.375 L 36.359375 39.246094 C 36.359375 39.246094 35.027344 38.960938 33.835938 38.980469 C 32.484375 39.007812 31.90625 39.136719 31.90625 39.136719 L 23.910156 18.175781 L 24.597656 17.621094 L 17.078125 36.976562 C 16.621094 38.121094 16.351562 39.082031 16.257812 39.863281 C 16.171875 40.648438 16.246094 41.277344 16.5 41.730469 C 16.742188 42.191406 17.160156 42.511719 17.746094 42.714844 C 18.34375 42.917969 19.085938 43.03125 19.972656 43.058594 L 19.972656 43.914062 C 19.171875 43.859375 18.324219 43.824219 17.449219 43.804688 C 16.566406 43.796875 15.753906 43.785156 15.007812 43.785156 C 14.285156 43.785156 13.667969 43.796875 13.167969 43.804688 C 12.664062 43.824219 12.199219 43.859375 11.761719 43.914062 L 11.761719 43.058594 C 12.335938 42.917969 12.933594 42.578125 13.539062 42.050781 C 14.144531 41.527344 14.691406 40.621094 15.175781 39.328125 L 25.335938 13.375 Z M 31.304688 31.578125 C 31.394531 31.847656 31.589844 32.417969 31.304688 32.4375 C 27.019531 32.722656 22.699219 32.734375 18.417969 32.4375 C 18.101562 32.417969 18.527344 31.597656 18.855469 31.578125 C 22.988281 31.304688 27.152344 31.441406 31.304688 31.578125 Z M 31.304688 31.578125 " fill-opacity="1" fill-rule="nonzero"/><path fill="#4a4a4a" d="M 40.570312 77.128906 C 40.601562 77.121094 40.929688 77.054688 41.234375 76.980469 C 41.59375 76.894531 41.953125 76.792969 41.953125 76.792969 C 41.953125 76.792969 41.542969 79.3125 41.421875 80.566406 L 40.445312 80.566406 C 40.5 80.09375 40.535156 79.546875 40.550781 78.921875 C 40.5625 78.300781 40.570312 77.128906 40.570312 77.128906 Z M 40.570312 77.128906 " fill-opacity="1" fill-rule="nonzero"/><path fill="#4a4a4a" d="M 49.851562 72.253906 C 49.851562 72.253906 50.066406 72.0625 50.339844 71.777344 C 50.621094 71.488281 50.726562 71.367188 50.726562 71.367188 C 51.242188 71.371094 51.757812 71.367188 52.277344 71.367188 C 53.558594 71.367188 54.84375 71.375 56.128906 71.367188 C 59.542969 71.351562 60.882812 71.320312 64.234375 71.234375 C 63.921875 74.34375 63.878906 77.449219 64.066406 80.566406 L 63.085938 80.566406 C 62.773438 77.300781 62.566406 73.207031 58.863281 72.457031 C 58.097656 72.300781 57.3125 72.257812 56.53125 72.257812 L 54.234375 72.257812 L 54.234375 97.542969 C 54.234375 100.964844 55.386719 101.652344 58.53125 101.808594 L 58.53125 102.695312 C 54.421875 102.367188 50.082031 102.339844 45.976562 102.695312 L 45.976562 101.808594 C 49.121094 101.652344 50.277344 100.964844 50.277344 97.542969 L 50.277344 72.257812 Z M 49.851562 72.253906 " fill-opacity="1" fill-rule="nonzero"/><path fill="#4a4a4a" d="M 34.203125 42.144531 C 35.304688 42.144531 36.214844 42.269531 36.9375 42.519531 C 37.660156 42.769531 38.253906 43.085938 38.71875 43.46875 C 39.09375 43.761719 39.398438 44.085938 39.628906 44.441406 C 39.859375 44.792969 40.035156 45.144531 40.148438 45.5 C 40.265625 45.851562 40.324219 46.191406 40.324219 46.515625 C 40.324219 47.25 40.070312 47.824219 39.5625 48.234375 C 39.058594 48.648438 38.5 48.855469 37.890625 48.855469 C 37.3125 48.855469 36.792969 48.664062 36.332031 48.28125 C 35.867188 47.898438 35.636719 47.351562 35.636719 46.648438 C 35.636719 46 35.851562 45.449219 36.285156 44.992188 C 36.722656 44.535156 37.269531 44.277344 37.9375 44.21875 C 37.820312 43.835938 37.464844 43.503906 36.871094 43.226562 C 36.28125 42.945312 35.535156 42.804688 34.636719 42.804688 C 33.160156 42.804688 31.953125 43.253906 31.015625 44.152344 C 30.074219 45.050781 29.601562 46.351562 29.601562 48.058594 C 29.601562 48.882812 29.753906 49.722656 30.058594 50.574219 C 30.363281 51.429688 30.949219 52.269531 31.816406 53.09375 C 32.308594 53.003906 32.816406 52.9375 33.335938 52.894531 C 33.855469 52.847656 34.246094 52.828125 34.507812 52.828125 C 35.027344 52.828125 35.449219 52.914062 35.765625 53.09375 C 36.085938 53.269531 36.242188 53.519531 36.242188 53.84375 C 36.242188 54.105469 36.136719 54.3125 35.917969 54.460938 C 35.699219 54.609375 35.40625 54.679688 35.027344 54.679688 C 34.480469 54.679688 33.898438 54.554688 33.292969 54.304688 C 32.683594 54.054688 32.207031 53.855469 31.859375 53.710938 C 30.183594 54.210938 28.820312 55.027344 27.78125 56.160156 C 26.738281 57.292969 26.21875 58.890625 26.21875 60.949219 C 26.21875 62.980469 26.738281 64.703125 27.78125 66.113281 C 28.820312 67.527344 30.21875 68.609375 31.96875 69.359375 C 33.71875 70.109375 35.679688 70.484375 37.847656 70.484375 C 39.382812 70.484375 40.835938 70.300781 42.210938 69.933594 C 43.585938 69.566406 44.800781 69.027344 45.855469 68.320312 C 46.914062 67.617188 47.742188 66.769531 48.351562 65.785156 C 48.960938 64.796875 49.261719 63.671875 49.261719 62.40625 C 49.261719 61.847656 49.148438 61.132812 48.914062 60.265625 C 48.683594 59.398438 48.207031 58.542969 47.484375 57.703125 C 46.761719 56.867188 45.644531 56.210938 44.140625 55.742188 L 44.664062 55.300781 C 46.773438 55.945312 48.28125 56.984375 49.175781 58.410156 C 50.074219 59.839844 50.523438 61.433594 50.523438 63.199219 C 50.523438 64.964844 50 66.660156 48.960938 68.277344 C 47.917969 69.894531 46.414062 71.214844 44.445312 72.226562 C 42.476562 73.242188 40.089844 73.75 37.285156 73.75 C 35.40625 73.75 33.617188 73.5 31.925781 73 C 30.234375 72.5 28.734375 71.773438 27.433594 70.816406 C 26.132812 69.859375 25.105469 68.703125 24.351562 67.351562 C 23.601562 65.996094 23.222656 64.464844 23.222656 62.757812 C 23.222656 61.171875 23.527344 59.808594 24.136719 58.675781 C 24.742188 57.542969 25.496094 56.609375 26.390625 55.875 C 27.289062 55.136719 28.1875 54.570312 29.082031 54.171875 C 29.980469 53.777344 30.703125 53.503906 31.253906 53.355469 C 30.296875 52.914062 29.496094 52.394531 28.84375 51.789062 C 28.191406 51.1875 27.699219 50.523438 27.367188 49.804688 C 27.035156 49.082031 26.871094 48.367188 26.871094 47.664062 C 26.871094 46.957031 27.027344 46.273438 27.347656 45.609375 C 27.664062 44.949219 28.128906 44.351562 28.734375 43.820312 C 29.34375 43.292969 30.101562 42.878906 31.015625 42.585938 C 31.925781 42.292969 32.988281 42.144531 34.203125 42.144531 Z M 50 41.261719 C 51.792969 41.261719 53.300781 41.785156 54.515625 42.828125 C 55.730469 43.875 56.335938 45.335938 56.335938 47.222656 C 56.335938 48.222656 56.15625 49.113281 55.792969 49.890625 C 55.433594 50.671875 54.941406 51.355469 54.320312 51.945312 C 53.695312 52.53125 52.996094 53.019531 52.214844 53.402344 C 51.546875 53.726562 50.671875 54.078125 49.589844 54.460938 C 48.503906 54.84375 47.347656 55.226562 46.117188 55.609375 C 44.886719 55.992188 43.714844 56.367188 42.601562 56.734375 C 41.488281 57.101562 40.582031 57.417969 39.890625 57.683594 C 38.820312 58.09375 37.914062 58.601562 37.175781 59.207031 C 36.4375 59.808594 36.070312 60.582031 36.070312 61.523438 C 36.070312 62.289062 36.285156 62.9375 36.722656 63.464844 C 37.15625 63.996094 37.683594 64.394531 38.304688 64.65625 C 38.925781 64.921875 39.511719 65.054688 40.0625 65.054688 C 40.324219 65.054688 40.648438 65.019531 41.039062 64.945312 C 41.429688 64.871094 41.785156 64.761719 42.101562 64.613281 C 42.421875 64.464844 42.609375 64.289062 42.667969 64.082031 C 42.203125 63.996094 41.746094 63.78125 41.300781 63.445312 C 40.851562 63.105469 40.625 62.566406 40.625 61.832031 C 40.625 61.125 40.859375 60.566406 41.320312 60.15625 C 41.785156 59.742188 42.347656 59.535156 43.011719 59.535156 C 43.707031 59.535156 44.265625 59.757812 44.683594 60.199219 C 45.105469 60.640625 45.3125 61.214844 45.3125 61.921875 C 45.3125 62.746094 45.046875 63.445312 44.511719 64.019531 C 43.976562 64.589844 43.308594 65.019531 42.515625 65.296875 C 41.71875 65.578125 40.929688 65.71875 40.148438 65.71875 C 39.339844 65.71875 38.515625 65.539062 37.675781 65.1875 C 36.835938 64.835938 36.140625 64.28125 35.59375 63.53125 C 35.042969 62.78125 34.769531 61.789062 34.769531 60.550781 C 34.769531 59.523438 34.992188 58.609375 35.441406 57.816406 C 35.890625 57.019531 36.5625 56.316406 37.457031 55.695312 C 38.355469 55.078125 39.453125 54.546875 40.757812 54.105469 C 41.625 53.8125 42.679688 53.488281 43.925781 53.136719 C 45.167969 52.78125 46.449219 52.402344 47.765625 51.988281 C 49.082031 51.578125 50.277344 51.121094 51.347656 50.621094 C 52.792969 49.941406 53.777344 49.25 54.296875 48.546875 C 54.816406 47.839844 55.078125 47.117188 55.078125 46.382812 C 55.078125 45.527344 54.847656 44.769531 54.382812 44.109375 C 53.921875 43.445312 53.304688 42.917969 52.539062 42.519531 C 51.773438 42.121094 50.941406 41.921875 50.042969 41.921875 C 49.695312 41.921875 49.40625 41.953125 49.175781 42.011719 C 48.945312 42.070312 48.800781 42.171875 48.742188 42.320312 C 49.148438 42.527344 49.449219 42.820312 49.652344 43.203125 C 49.855469 43.585938 49.957031 43.96875 49.957031 44.351562 C 49.957031 44.96875 49.71875 45.484375 49.242188 45.898438 C 48.765625 46.308594 48.191406 46.515625 47.527344 46.515625 C 46.976562 46.515625 46.457031 46.332031 45.964844 45.960938 C 45.472656 45.59375 45.226562 45.042969 45.226562 44.308594 C 45.226562 43.542969 45.480469 42.9375 45.988281 42.496094 C 46.492188 42.054688 47.113281 41.738281 47.851562 41.546875 C 48.589844 41.355469 49.304688 41.261719 50 41.261719 Z M 50 41.261719 " fill-opacity="1" fill-rule="nonzero"/><path fill="#4a4a4a" d="M 38.957031 -0.0703125 C 60.457031 -0.0703125 77.914062 26.832031 77.914062 59.964844 C 77.914062 93.097656 60.457031 120 38.957031 120 C 17.457031 120 0 93.097656 0 59.964844 C 0 26.832031 17.457031 -0.0703125 38.957031 -0.0703125 Z M 38.957031 1.25 C 59.984375 1.25 77.058594 27.558594 77.058594 59.964844 C 77.058594 92.371094 59.984375 118.679688 38.957031 118.679688 C 17.929688 118.679688 0.855469 92.371094 0.855469 59.964844 C 0.855469 27.558594 17.929688 1.25 38.957031 1.25 Z M 38.957031 1.25 " fill-opacity="1" fill-rule="evenodd"/></svg>