<?xml version="1.0" encoding="UTF-8" standalone="no"?>
<!DOCTYPE svg PUBLIC "-//W3C//DTD SVG 1.1//EN" "http://www.w3.org/Graphics/SVG/1.1/DTD/svg11.dtd">
<svg width="100%" height="100%" viewBox="0 0 647 997" version="1.1" xmlns="http://www.w3.org/2000/svg" xmlns:xlink="http://www.w3.org/1999/xlink" xml:space="preserve" xmlns:serif="http://www.serif.com/" style="fill-rule:evenodd;clip-rule:evenodd;stroke-linejoin:round;stroke-miterlimit:2;">
    <g transform="matrix(1.15939,0,0,1.15939,-254.005,-78.3545)">
        <g transform="matrix(66.7221,0,0,66.118,-16663.6,-21154.4)">
            <path d="M255.825,322.421L256.935,325.225C256.935,325.225 256.792,325.194 256.664,325.196C256.519,325.199 256.457,325.213 256.457,325.213L255.598,322.941L255.672,322.881L254.864,324.979C254.815,325.103 254.786,325.207 254.776,325.292C254.767,325.377 254.775,325.445 254.802,325.494C254.828,325.544 254.873,325.579 254.936,325.601C255,325.623 255.08,325.635 255.175,325.638L255.175,325.731C255.089,325.725 254.998,325.721 254.904,325.719C254.809,325.718 254.722,325.717 254.642,325.717C254.564,325.717 254.498,325.718 254.444,325.719C254.39,325.721 254.34,325.725 254.293,325.731L254.293,325.638C254.355,325.623 254.419,325.586 254.484,325.529C254.549,325.472 254.608,325.374 254.66,325.234L255.751,322.421L255.825,322.421ZM256.392,324.394C256.402,324.423 256.423,324.485 256.392,324.487C255.932,324.518 255.468,324.519 255.008,324.487C254.974,324.485 255.02,324.396 255.055,324.394C255.499,324.364 255.946,324.379 256.392,324.394Z" style="fill-rule:nonzero;"/>
        </g>
        <g transform="matrix(12.7089,0,0,13.2689,-2733.35,-3518.56)">
            <path d="M255.19,311.923C255.206,311.918 255.391,311.882 255.564,311.842C255.766,311.796 255.97,311.74 255.97,311.74C255.97,311.74 255.738,313.102 255.67,313.779L255.118,313.779C255.15,313.523 255.17,313.227 255.178,312.891C255.186,312.555 255.19,311.923 255.19,311.923Z" style="fill-rule:nonzero;"/>
        </g>
        <g transform="matrix(12.7089,0,0,13.2689,-2733.35,-3518.56)">
            <path d="M260.424,309.289C260.424,309.289 260.545,309.186 260.699,309.032C260.856,308.876 260.916,308.811 260.916,308.811C261.208,308.812 261.497,308.811 261.79,308.811C262.514,308.811 263.238,308.815 263.962,308.811C265.887,308.801 266.643,308.785 268.534,308.739C268.357,310.418 268.333,312.096 268.438,313.779L267.886,313.779C267.71,312.015 267.592,309.803 265.504,309.399C265.072,309.315 264.629,309.291 264.19,309.291L262.894,309.291L262.894,322.947C262.894,324.795 263.544,325.167 265.318,325.251L265.318,325.731C263.001,325.553 260.553,325.538 258.238,325.731L258.238,325.251C260.012,325.167 260.662,324.795 260.662,322.947L260.662,309.291L260.424,309.289Z" style="fill-rule:nonzero;"/>
        </g>
        <g transform="matrix(12.9588,0,0,13.1813,-2927.04,-3701.89)">
            <path d="M261.694,308.883C262.302,308.883 262.806,308.951 263.206,309.087C263.606,309.223 263.934,309.395 264.19,309.603C264.398,309.763 264.566,309.939 264.694,310.131C264.822,310.323 264.918,310.515 264.982,310.707C265.046,310.899 265.078,311.083 265.078,311.259C265.078,311.659 264.938,311.971 264.658,312.195C264.378,312.419 264.07,312.531 263.734,312.531C263.414,312.531 263.126,312.427 262.87,312.219C262.614,312.011 262.486,311.715 262.486,311.331C262.486,310.979 262.606,310.679 262.846,310.431C263.086,310.183 263.39,310.043 263.758,310.011C263.694,309.803 263.498,309.623 263.17,309.471C262.842,309.319 262.43,309.243 261.934,309.243C261.118,309.243 260.45,309.487 259.93,309.975C259.41,310.463 259.15,311.171 259.15,312.099C259.15,312.547 259.234,313.003 259.402,313.467C259.57,313.931 259.894,314.387 260.374,314.835C260.646,314.787 260.926,314.751 261.214,314.727C261.502,314.703 261.718,314.691 261.862,314.691C262.15,314.691 262.382,314.739 262.558,314.835C262.734,314.931 262.822,315.067 262.822,315.243C262.822,315.387 262.762,315.499 262.642,315.579C262.522,315.659 262.358,315.699 262.15,315.699C261.846,315.699 261.526,315.631 261.19,315.495C260.854,315.359 260.59,315.251 260.398,315.171C259.47,315.443 258.718,315.887 258.142,316.503C257.566,317.119 257.278,317.987 257.278,319.107C257.278,320.211 257.566,321.147 258.142,321.915C258.718,322.683 259.49,323.271 260.458,323.679C261.426,324.087 262.51,324.291 263.71,324.291C264.558,324.291 265.362,324.191 266.122,323.991C266.882,323.791 267.554,323.499 268.138,323.115C268.722,322.731 269.182,322.271 269.518,321.735C269.854,321.199 270.022,320.587 270.022,319.899C270.022,319.595 269.958,319.207 269.83,318.735C269.702,318.263 269.438,317.799 269.038,317.343C268.638,316.887 268.022,316.531 267.19,316.275L267.478,316.035C268.646,316.387 269.478,316.951 269.974,317.727C270.47,318.503 270.718,319.371 270.718,320.331C270.718,321.291 270.43,322.211 269.854,323.091C269.278,323.971 268.446,324.687 267.358,325.239C266.27,325.791 264.95,326.067 263.398,326.067C262.358,326.067 261.37,325.931 260.434,325.659C259.498,325.387 258.67,324.991 257.95,324.471C257.23,323.951 256.662,323.323 256.246,322.587C255.83,321.851 255.622,321.019 255.622,320.091C255.622,319.227 255.79,318.487 256.126,317.871C256.462,317.255 256.878,316.747 257.374,316.347C257.87,315.947 258.366,315.639 258.862,315.423C259.358,315.207 259.758,315.059 260.062,314.979C259.534,314.739 259.09,314.455 258.73,314.127C258.37,313.799 258.098,313.439 257.914,313.047C257.73,312.655 257.638,312.267 257.638,311.883C257.638,311.499 257.726,311.127 257.902,310.767C258.078,310.407 258.334,310.083 258.67,309.795C259.006,309.507 259.426,309.283 259.93,309.123C260.434,308.963 261.022,308.883 261.694,308.883ZM270.43,308.403C271.422,308.403 272.254,308.687 272.926,309.255C273.598,309.823 273.934,310.619 273.934,311.643C273.934,312.187 273.834,312.671 273.634,313.095C273.434,313.519 273.162,313.891 272.818,314.211C272.474,314.531 272.086,314.795 271.654,315.003C271.286,315.179 270.802,315.371 270.202,315.579C269.602,315.787 268.962,315.995 268.282,316.203C267.602,316.411 266.954,316.615 266.338,316.815C265.722,317.015 265.222,317.187 264.838,317.331C264.246,317.555 263.746,317.831 263.338,318.159C262.93,318.487 262.726,318.907 262.726,319.419C262.726,319.835 262.846,320.187 263.086,320.475C263.326,320.763 263.618,320.979 263.962,321.123C264.306,321.267 264.63,321.339 264.934,321.339C265.078,321.339 265.258,321.319 265.474,321.279C265.69,321.239 265.886,321.179 266.062,321.099C266.238,321.019 266.342,320.923 266.374,320.811C266.118,320.763 265.866,320.647 265.618,320.463C265.37,320.279 265.246,319.987 265.246,319.587C265.246,319.203 265.374,318.899 265.63,318.675C265.886,318.451 266.198,318.339 266.566,318.339C266.95,318.339 267.258,318.459 267.49,318.699C267.722,318.939 267.838,319.251 267.838,319.635C267.838,320.083 267.69,320.463 267.394,320.775C267.098,321.087 266.73,321.319 266.29,321.471C265.85,321.623 265.414,321.699 264.982,321.699C264.534,321.699 264.078,321.603 263.614,321.411C263.15,321.219 262.766,320.919 262.462,320.511C262.158,320.103 262.006,319.563 262.006,318.891C262.006,318.331 262.13,317.835 262.378,317.403C262.626,316.971 262.998,316.587 263.494,316.251C263.99,315.915 264.598,315.627 265.318,315.387C265.798,315.227 266.382,315.051 267.07,314.859C267.758,314.667 268.466,314.459 269.194,314.235C269.922,314.011 270.582,313.763 271.174,313.491C271.974,313.123 272.518,312.747 272.806,312.363C273.094,311.979 273.238,311.587 273.238,311.187C273.238,310.723 273.11,310.311 272.854,309.951C272.598,309.591 272.258,309.303 271.834,309.087C271.41,308.871 270.95,308.763 270.454,308.763C270.262,308.763 270.102,308.779 269.974,308.811C269.846,308.843 269.766,308.899 269.734,308.979C269.958,309.091 270.126,309.251 270.238,309.459C270.35,309.667 270.406,309.875 270.406,310.083C270.406,310.419 270.274,310.699 270.01,310.923C269.746,311.147 269.43,311.259 269.062,311.259C268.758,311.259 268.47,311.159 268.198,310.959C267.926,310.759 267.79,310.459 267.79,310.059C267.79,309.643 267.93,309.315 268.21,309.075C268.49,308.835 268.834,308.663 269.242,308.559C269.65,308.455 270.046,308.403 270.43,308.403Z" style="fill-rule:nonzero;"/>
        </g>
        <g transform="matrix(2.76635,0,0,3.05291,-491.64,-95.6586)">
            <path d="M357.836,53.305C413.534,53.305 458.754,116.45 458.754,194.227C458.754,272.004 413.534,335.149 357.836,335.149C302.138,335.149 256.918,272.004 256.918,194.227C256.918,116.45 302.138,53.305 357.836,53.305ZM357.836,56.402C412.31,56.402 456.537,118.159 456.537,194.227C456.537,270.295 412.31,332.053 357.836,332.053C303.361,332.053 259.135,270.295 259.135,194.227C259.135,118.159 303.361,56.402 357.836,56.402Z"/>
        </g>
    </g>
</svg>
