<svg xmlns="http://www.w3.org/2000/svg" xmlns:xlink="http://www.w3.org/1999/xlink" width="154" zoomAndPan="magnify" viewBox="0 0 115.5 45.749998" height="61" preserveAspectRatio="xMidYMid meet" version="1.0"><defs><g/><clipPath id="ed140058bf"><path d="M 0.0664062 4 L 11 4 L 11 18 L 0.0664062 18 Z M 0.0664062 4 " clip-rule="nonzero"/></clipPath><clipPath id="e7f65bac8d"><path d="M 0.0664062 15 L 12 15 L 12 41 L 0.0664062 41 Z M 0.0664062 15 " clip-rule="nonzero"/></clipPath></defs><g clip-path="url(#ed140058bf)"><g fill="#4a4a4a" fill-opacity="1"><g transform="translate(0.0652193, 17.658238)"><g><path d="M 10.59375 -12.75 L 10.59375 -12.390625 C 10.363281 -12.347656 10.132812 -12.203125 9.90625 -11.953125 C 9.675781 -11.703125 9.425781 -11.316406 9.15625 -10.796875 L 5.515625 -3.578125 L 5.203125 -3.578125 L 0.984375 -11.375 C 0.742188 -11.8125 0.539062 -12.085938 0.375 -12.203125 C 0.21875 -12.316406 0.078125 -12.375 -0.046875 -12.375 L -0.046875 -12.75 C 0.191406 -12.738281 0.4375 -12.726562 0.6875 -12.71875 C 0.945312 -12.707031 1.226562 -12.703125 1.53125 -12.703125 C 1.925781 -12.703125 2.347656 -12.703125 2.796875 -12.703125 C 3.253906 -12.710938 3.671875 -12.726562 4.046875 -12.75 L 4.046875 -12.375 C 3.753906 -12.375 3.492188 -12.335938 3.265625 -12.265625 C 3.035156 -12.191406 2.882812 -12.054688 2.8125 -11.859375 C 2.738281 -11.671875 2.789062 -11.40625 2.96875 -11.0625 L 6.015625 -5.21875 L 5.875 -5.109375 L 8.265625 -9.890625 C 8.609375 -10.546875 8.773438 -11.054688 8.765625 -11.421875 C 8.753906 -11.785156 8.609375 -12.035156 8.328125 -12.171875 C 8.054688 -12.304688 7.671875 -12.378906 7.171875 -12.390625 L 7.171875 -12.75 C 7.515625 -12.738281 7.867188 -12.726562 8.234375 -12.71875 C 8.597656 -12.707031 8.929688 -12.703125 9.234375 -12.703125 C 9.546875 -12.703125 9.804688 -12.707031 10.015625 -12.71875 C 10.222656 -12.726562 10.414062 -12.738281 10.59375 -12.75 Z M 6.328125 -5.484375 L 6.328125 -1.90625 C 6.328125 -1.476562 6.363281 -1.15625 6.4375 -0.9375 C 6.507812 -0.71875 6.648438 -0.570312 6.859375 -0.5 C 7.066406 -0.425781 7.375 -0.378906 7.78125 -0.359375 L 7.78125 0 C 7.507812 -0.0195312 7.164062 -0.03125 6.75 -0.03125 C 6.332031 -0.0390625 5.914062 -0.046875 5.5 -0.046875 C 5.03125 -0.046875 4.585938 -0.0390625 4.171875 -0.03125 C 3.765625 -0.03125 3.4375 -0.0195312 3.1875 0 L 3.1875 -0.359375 C 3.59375 -0.378906 3.898438 -0.425781 4.109375 -0.5 C 4.328125 -0.570312 4.46875 -0.71875 4.53125 -0.9375 C 4.601562 -1.15625 4.640625 -1.476562 4.640625 -1.90625 L 4.640625 -5.609375 L 5.625 -4.484375 Z M 6.328125 -5.484375 "/></g></g></g></g><g fill="#4a4a4a" fill-opacity="1"><g transform="translate(10.712738, 17.658238)"><g><path d="M 6.6875 -13 C 7.820312 -13 8.816406 -12.738281 9.671875 -12.21875 C 10.535156 -11.707031 11.203125 -10.96875 11.671875 -10 C 12.148438 -9.039062 12.390625 -7.867188 12.390625 -6.484375 C 12.390625 -5.140625 12.144531 -3.960938 11.65625 -2.953125 C 11.175781 -1.941406 10.503906 -1.15625 9.640625 -0.59375 C 8.773438 -0.03125 7.785156 0.25 6.671875 0.25 C 5.523438 0.25 4.519531 -0.00390625 3.65625 -0.515625 C 2.800781 -1.035156 2.132812 -1.78125 1.65625 -2.75 C 1.1875 -3.726562 0.953125 -4.898438 0.953125 -6.265625 C 0.953125 -7.609375 1.195312 -8.785156 1.6875 -9.796875 C 2.1875 -10.804688 2.863281 -11.59375 3.71875 -12.15625 C 4.582031 -12.71875 5.570312 -13 6.6875 -13 Z M 6.609375 -12.6875 C 5.828125 -12.6875 5.148438 -12.414062 4.578125 -11.875 C 4.003906 -11.332031 3.554688 -10.585938 3.234375 -9.640625 C 2.910156 -8.691406 2.75 -7.59375 2.75 -6.34375 C 2.75 -5.070312 2.925781 -3.960938 3.28125 -3.015625 C 3.632812 -2.078125 4.113281 -1.351562 4.71875 -0.84375 C 5.332031 -0.332031 6.003906 -0.078125 6.734375 -0.078125 C 7.515625 -0.078125 8.191406 -0.34375 8.765625 -0.875 C 9.347656 -1.414062 9.796875 -2.164062 10.109375 -3.125 C 10.429688 -4.082031 10.59375 -5.175781 10.59375 -6.40625 C 10.59375 -7.695312 10.414062 -8.8125 10.0625 -9.75 C 9.707031 -10.6875 9.226562 -11.410156 8.625 -11.921875 C 8.03125 -12.429688 7.359375 -12.6875 6.609375 -12.6875 Z M 6.609375 -12.6875 "/></g></g></g><g fill="#4a4a4a" fill-opacity="1"><g transform="translate(24.062675, 17.658238)"><g><path d="M 11.796875 -12.75 L 11.796875 -12.390625 C 11.390625 -12.378906 11.082031 -12.316406 10.875 -12.203125 C 10.664062 -12.097656 10.523438 -11.925781 10.453125 -11.6875 C 10.378906 -11.445312 10.34375 -11.109375 10.34375 -10.671875 L 10.34375 -5.25 C 10.34375 -4.40625 10.285156 -3.671875 10.171875 -3.046875 C 10.066406 -2.421875 9.878906 -1.878906 9.609375 -1.421875 C 9.304688 -0.921875 8.863281 -0.515625 8.28125 -0.203125 C 7.707031 0.0976562 7.050781 0.25 6.3125 0.25 C 5.726562 0.25 5.175781 0.179688 4.65625 0.046875 C 4.132812 -0.0859375 3.675781 -0.34375 3.28125 -0.71875 C 2.925781 -1.050781 2.648438 -1.40625 2.453125 -1.78125 C 2.253906 -2.15625 2.117188 -2.613281 2.046875 -3.15625 C 1.984375 -3.695312 1.953125 -4.375 1.953125 -5.1875 L 1.953125 -10.84375 C 1.953125 -11.289062 1.914062 -11.617188 1.84375 -11.828125 C 1.769531 -12.035156 1.625 -12.175781 1.40625 -12.25 C 1.195312 -12.332031 0.890625 -12.378906 0.484375 -12.390625 L 0.484375 -12.75 C 0.734375 -12.738281 1.0625 -12.726562 1.46875 -12.71875 C 1.882812 -12.707031 2.328125 -12.703125 2.796875 -12.703125 C 3.210938 -12.703125 3.628906 -12.707031 4.046875 -12.71875 C 4.460938 -12.726562 4.804688 -12.738281 5.078125 -12.75 L 5.078125 -12.390625 C 4.671875 -12.378906 4.363281 -12.332031 4.15625 -12.25 C 3.945312 -12.175781 3.804688 -12.035156 3.734375 -11.828125 C 3.660156 -11.617188 3.625 -11.289062 3.625 -10.84375 L 3.625 -4.875 C 3.625 -4.269531 3.648438 -3.691406 3.703125 -3.140625 C 3.765625 -2.597656 3.890625 -2.117188 4.078125 -1.703125 C 4.265625 -1.285156 4.550781 -0.957031 4.9375 -0.71875 C 5.320312 -0.488281 5.832031 -0.375 6.46875 -0.375 C 7.382812 -0.375 8.085938 -0.570312 8.578125 -0.96875 C 9.078125 -1.375 9.425781 -1.929688 9.625 -2.640625 C 9.820312 -3.359375 9.921875 -4.160156 9.921875 -5.046875 L 9.921875 -10.671875 C 9.921875 -11.109375 9.867188 -11.445312 9.765625 -11.6875 C 9.671875 -11.925781 9.503906 -12.097656 9.265625 -12.203125 C 9.023438 -12.316406 8.695312 -12.378906 8.28125 -12.390625 L 8.28125 -12.75 C 8.5 -12.738281 8.785156 -12.726562 9.140625 -12.71875 C 9.492188 -12.707031 9.820312 -12.703125 10.125 -12.703125 C 10.4375 -12.703125 10.742188 -12.707031 11.046875 -12.71875 C 11.359375 -12.726562 11.609375 -12.738281 11.796875 -12.75 Z M 11.796875 -12.75 "/></g></g></g><g fill="#4a4a4a" fill-opacity="1"><g transform="translate(36.349654, 17.658238)"><g/></g></g><g fill="#4a4a4a" fill-opacity="1"><g transform="translate(40.835662, 17.658238)"><g><path d="M 5.8125 -12.84375 L 10.21875 -1.515625 C 10.394531 -1.054688 10.597656 -0.75 10.828125 -0.59375 C 11.054688 -0.445312 11.265625 -0.367188 11.453125 -0.359375 L 11.453125 0 C 11.210938 -0.0195312 10.914062 -0.03125 10.5625 -0.03125 C 10.21875 -0.0390625 9.875 -0.046875 9.53125 -0.046875 C 9.0625 -0.046875 8.625 -0.0390625 8.21875 -0.03125 C 7.8125 -0.03125 7.476562 -0.0195312 7.21875 0 L 7.21875 -0.359375 C 7.832031 -0.378906 8.222656 -0.484375 8.390625 -0.671875 C 8.554688 -0.859375 8.519531 -1.257812 8.28125 -1.875 L 4.9375 -10.828125 L 5.21875 -11.0625 L 2.09375 -2.921875 C 1.894531 -2.441406 1.773438 -2.035156 1.734375 -1.703125 C 1.703125 -1.367188 1.738281 -1.101562 1.84375 -0.90625 C 1.945312 -0.71875 2.117188 -0.582031 2.359375 -0.5 C 2.609375 -0.414062 2.921875 -0.367188 3.296875 -0.359375 L 3.296875 0 C 2.960938 -0.0195312 2.609375 -0.03125 2.234375 -0.03125 C 1.867188 -0.0390625 1.53125 -0.046875 1.21875 -0.046875 C 0.925781 -0.046875 0.671875 -0.0390625 0.453125 -0.03125 C 0.242188 -0.03125 0.0507812 -0.0195312 -0.125 0 L -0.125 -0.359375 C 0.113281 -0.421875 0.359375 -0.5625 0.609375 -0.78125 C 0.859375 -1 1.085938 -1.378906 1.296875 -1.921875 L 5.53125 -12.84375 C 5.582031 -12.84375 5.628906 -12.84375 5.671875 -12.84375 C 5.722656 -12.84375 5.769531 -12.84375 5.8125 -12.84375 Z M 8.015625 -5.1875 L 8.015625 -4.828125 L 2.640625 -4.828125 L 2.828125 -5.1875 Z M 8.015625 -5.1875 "/></g></g></g><g fill="#4a4a4a" fill-opacity="1"><g transform="translate(52.18581, 17.658238)"><g><path d="M 0.75 -12.75 C 1.007812 -12.738281 1.34375 -12.726562 1.75 -12.71875 C 2.15625 -12.707031 2.554688 -12.703125 2.953125 -12.703125 C 3.515625 -12.703125 4.050781 -12.707031 4.5625 -12.71875 C 5.082031 -12.726562 5.453125 -12.734375 5.671875 -12.734375 C 6.648438 -12.734375 7.457031 -12.59375 8.09375 -12.3125 C 8.738281 -12.039062 9.21875 -11.664062 9.53125 -11.1875 C 9.851562 -10.71875 10.015625 -10.191406 10.015625 -9.609375 C 10.015625 -9.242188 9.941406 -8.859375 9.796875 -8.453125 C 9.648438 -8.046875 9.398438 -7.660156 9.046875 -7.296875 C 8.691406 -6.929688 8.207031 -6.628906 7.59375 -6.390625 C 6.988281 -6.160156 6.21875 -6.046875 5.28125 -6.046875 L 3.546875 -6.046875 L 3.546875 -6.40625 L 5.09375 -6.40625 C 5.945312 -6.40625 6.597656 -6.539062 7.046875 -6.8125 C 7.503906 -7.082031 7.8125 -7.441406 7.96875 -7.890625 C 8.132812 -8.347656 8.21875 -8.851562 8.21875 -9.40625 C 8.21875 -10.351562 7.988281 -11.085938 7.53125 -11.609375 C 7.082031 -12.128906 6.3125 -12.390625 5.21875 -12.390625 C 4.664062 -12.390625 4.304688 -12.285156 4.140625 -12.078125 C 3.972656 -11.878906 3.890625 -11.46875 3.890625 -10.84375 L 3.890625 -1.90625 C 3.890625 -1.476562 3.925781 -1.15625 4 -0.9375 C 4.070312 -0.71875 4.210938 -0.570312 4.421875 -0.5 C 4.628906 -0.425781 4.9375 -0.378906 5.34375 -0.359375 L 5.34375 0 C 5.070312 -0.0195312 4.726562 -0.03125 4.3125 -0.03125 C 3.894531 -0.0390625 3.476562 -0.046875 3.0625 -0.046875 C 2.59375 -0.046875 2.15625 -0.0390625 1.75 -0.03125 C 1.34375 -0.03125 1.007812 -0.0195312 0.75 0 L 0.75 -0.359375 C 1.164062 -0.378906 1.476562 -0.425781 1.6875 -0.5 C 1.894531 -0.570312 2.035156 -0.71875 2.109375 -0.9375 C 2.179688 -1.15625 2.21875 -1.476562 2.21875 -1.90625 L 2.21875 -10.84375 C 2.21875 -11.289062 2.179688 -11.617188 2.109375 -11.828125 C 2.035156 -12.035156 1.894531 -12.175781 1.6875 -12.25 C 1.476562 -12.332031 1.164062 -12.378906 0.75 -12.390625 Z M 3.625 -6.359375 C 4.269531 -6.335938 4.78125 -6.3125 5.15625 -6.28125 C 5.53125 -6.25 5.832031 -6.21875 6.0625 -6.1875 C 6.289062 -6.164062 6.515625 -6.140625 6.734375 -6.109375 C 7.535156 -5.972656 8.113281 -5.726562 8.46875 -5.375 C 8.820312 -5.019531 9.085938 -4.472656 9.265625 -3.734375 L 9.703125 -1.890625 C 9.828125 -1.359375 9.953125 -0.972656 10.078125 -0.734375 C 10.203125 -0.503906 10.398438 -0.398438 10.671875 -0.421875 C 10.867188 -0.429688 11.035156 -0.492188 11.171875 -0.609375 C 11.316406 -0.734375 11.46875 -0.894531 11.625 -1.09375 L 11.890625 -0.90625 C 11.640625 -0.53125 11.378906 -0.242188 11.109375 -0.046875 C 10.835938 0.148438 10.457031 0.25 9.96875 0.25 C 9.519531 0.25 9.125 0.117188 8.78125 -0.140625 C 8.445312 -0.410156 8.195312 -0.925781 8.03125 -1.6875 L 7.640625 -3.5 C 7.523438 -4.007812 7.398438 -4.453125 7.265625 -4.828125 C 7.128906 -5.210938 6.9375 -5.507812 6.6875 -5.71875 C 6.445312 -5.9375 6.085938 -6.046875 5.609375 -6.046875 L 3.65625 -6.046875 Z M 3.625 -6.359375 "/></g></g></g><g fill="#4a4a4a" fill-opacity="1"><g transform="translate(63.860245, 17.658238)"><g><path d="M 9.75 -12.75 C 9.695312 -12.332031 9.660156 -11.925781 9.640625 -11.53125 C 9.628906 -11.132812 9.625 -10.832031 9.625 -10.625 C 9.625 -10.414062 9.628906 -10.207031 9.640625 -10 C 9.648438 -9.800781 9.660156 -9.640625 9.671875 -9.515625 L 9.265625 -9.515625 C 9.191406 -10.222656 9.085938 -10.78125 8.953125 -11.1875 C 8.816406 -11.601562 8.585938 -11.898438 8.265625 -12.078125 C 7.953125 -12.253906 7.476562 -12.34375 6.84375 -12.34375 L 5.34375 -12.34375 C 4.9375 -12.34375 4.628906 -12.304688 4.421875 -12.234375 C 4.210938 -12.171875 4.070312 -12.035156 4 -11.828125 C 3.925781 -11.617188 3.890625 -11.289062 3.890625 -10.84375 L 3.890625 -1.90625 C 3.890625 -1.476562 3.925781 -1.15625 4 -0.9375 C 4.070312 -0.71875 4.210938 -0.578125 4.421875 -0.515625 C 4.628906 -0.453125 4.9375 -0.421875 5.34375 -0.421875 L 6.671875 -0.421875 C 7.421875 -0.421875 7.988281 -0.519531 8.375 -0.71875 C 8.769531 -0.925781 9.054688 -1.257812 9.234375 -1.71875 C 9.410156 -2.1875 9.539062 -2.816406 9.625 -3.609375 L 10.03125 -3.609375 C 10 -3.273438 9.984375 -2.84375 9.984375 -2.3125 C 9.984375 -2.082031 9.988281 -1.753906 10 -1.328125 C 10.019531 -0.898438 10.054688 -0.457031 10.109375 0 C 9.492188 -0.0195312 8.800781 -0.03125 8.03125 -0.03125 C 7.257812 -0.0390625 6.578125 -0.046875 5.984375 -0.046875 C 5.710938 -0.046875 5.367188 -0.046875 4.953125 -0.046875 C 4.546875 -0.046875 4.101562 -0.0390625 3.625 -0.03125 C 3.144531 -0.03125 2.65625 -0.0234375 2.15625 -0.015625 C 1.664062 -0.015625 1.195312 -0.0078125 0.75 0 L 0.75 -0.359375 C 1.164062 -0.378906 1.476562 -0.425781 1.6875 -0.5 C 1.894531 -0.570312 2.035156 -0.71875 2.109375 -0.9375 C 2.179688 -1.15625 2.21875 -1.476562 2.21875 -1.90625 L 2.21875 -10.84375 C 2.21875 -11.289062 2.179688 -11.617188 2.109375 -11.828125 C 2.035156 -12.035156 1.894531 -12.175781 1.6875 -12.25 C 1.476562 -12.332031 1.164062 -12.378906 0.75 -12.390625 L 0.75 -12.75 C 1.195312 -12.738281 1.664062 -12.726562 2.15625 -12.71875 C 2.65625 -12.71875 3.144531 -12.710938 3.625 -12.703125 C 4.101562 -12.703125 4.546875 -12.703125 4.953125 -12.703125 C 5.367188 -12.703125 5.710938 -12.703125 5.984375 -12.703125 C 6.535156 -12.703125 7.160156 -12.703125 7.859375 -12.703125 C 8.566406 -12.710938 9.195312 -12.726562 9.75 -12.75 Z M 6.640625 -6.59375 C 6.640625 -6.59375 6.640625 -6.53125 6.640625 -6.40625 C 6.640625 -6.289062 6.640625 -6.234375 6.640625 -6.234375 L 3.34375 -6.234375 C 3.34375 -6.234375 3.34375 -6.289062 3.34375 -6.40625 C 3.34375 -6.53125 3.34375 -6.59375 3.34375 -6.59375 Z M 7.171875 -8.96875 C 7.117188 -8.28125 7.09375 -7.753906 7.09375 -7.390625 C 7.101562 -7.035156 7.109375 -6.707031 7.109375 -6.40625 C 7.109375 -6.113281 7.113281 -5.785156 7.125 -5.421875 C 7.144531 -5.054688 7.175781 -4.535156 7.21875 -3.859375 L 6.8125 -3.859375 C 6.757812 -4.242188 6.703125 -4.617188 6.640625 -4.984375 C 6.578125 -5.347656 6.429688 -5.644531 6.203125 -5.875 C 5.984375 -6.113281 5.609375 -6.234375 5.078125 -6.234375 L 5.078125 -6.59375 C 5.472656 -6.59375 5.773438 -6.671875 5.984375 -6.828125 C 6.203125 -6.992188 6.359375 -7.203125 6.453125 -7.453125 C 6.546875 -7.710938 6.609375 -7.972656 6.640625 -8.234375 C 6.679688 -8.503906 6.71875 -8.75 6.75 -8.96875 Z M 7.171875 -8.96875 "/></g></g></g><g clip-path="url(#e7f65bac8d)"><g fill="#d2b48c" fill-opacity="1"><g transform="translate(0.0652193, 40.033124)"><g><path d="M 5.671875 -21.9375 C 5.710938 -22.851562 6.046875 -23.554688 6.671875 -24.046875 C 7.304688 -24.535156 8.066406 -24.78125 8.953125 -24.78125 C 9.734375 -24.78125 10.332031 -24.59375 10.75 -24.21875 C 11.164062 -23.84375 11.351562 -23.328125 11.3125 -22.671875 C 11.269531 -21.835938 10.925781 -21.15625 10.28125 -20.625 C 9.644531 -20.101562 8.878906 -19.84375 7.984375 -19.84375 C 7.234375 -19.84375 6.648438 -20.03125 6.234375 -20.40625 C 5.816406 -20.78125 5.628906 -21.289062 5.671875 -21.9375 Z M 4.453125 -13.84375 C 4.816406 -14.914062 4.703125 -15.453125 4.109375 -15.453125 C 3.722656 -15.453125 3.367188 -15.257812 3.046875 -14.875 C 2.722656 -14.488281 2.390625 -13.835938 2.046875 -12.921875 L 1.40625 -11.28125 L 0.796875 -11.28125 L 1.703125 -13.71875 C 1.992188 -14.570312 2.367188 -15.234375 2.828125 -15.703125 C 3.296875 -16.179688 3.8125 -16.519531 4.375 -16.71875 C 4.9375 -16.925781 5.53125 -17.03125 6.15625 -17.03125 C 6.90625 -17.03125 7.492188 -16.890625 7.921875 -16.609375 C 8.347656 -16.328125 8.632812 -15.96875 8.78125 -15.53125 C 8.9375 -15.09375 8.988281 -14.613281 8.9375 -14.09375 C 8.894531 -13.570312 8.789062 -13.050781 8.625 -12.53125 L 5.265625 -2.71875 C 5.066406 -2.144531 5.015625 -1.734375 5.109375 -1.484375 C 5.210938 -1.242188 5.410156 -1.125 5.703125 -1.125 C 5.984375 -1.125 6.289062 -1.28125 6.625 -1.59375 C 6.957031 -1.914062 7.328125 -2.601562 7.734375 -3.65625 L 8.296875 -5.1875 L 8.90625 -5.1875 L 8.078125 -2.859375 C 7.773438 -1.972656 7.390625 -1.296875 6.921875 -0.828125 C 6.453125 -0.359375 5.941406 -0.03125 5.390625 0.15625 C 4.847656 0.351562 4.300781 0.453125 3.75 0.453125 C 2.832031 0.453125 2.132812 0.25 1.65625 -0.15625 C 1.175781 -0.5625 0.910156 -1.148438 0.859375 -1.921875 C 0.816406 -2.691406 0.96875 -3.601562 1.3125 -4.65625 Z M 4.453125 -13.84375 "/></g></g></g></g><g fill="#d2b48c" fill-opacity="1"><g transform="translate(10.390728, 40.033124)"><g><path d="M 5.03125 0 L 0.515625 0 L 4.390625 -13.84375 C 4.492188 -14.144531 4.5625 -14.414062 4.59375 -14.65625 C 4.632812 -14.90625 4.609375 -15.097656 4.515625 -15.234375 C 4.429688 -15.378906 4.273438 -15.453125 4.046875 -15.453125 C 3.660156 -15.453125 3.3125 -15.273438 3 -14.921875 C 2.6875 -14.566406 2.347656 -13.898438 1.984375 -12.921875 L 1.375 -11.28125 L 0.765625 -11.28125 L 1.640625 -13.71875 C 2.066406 -14.9375 2.625 -15.789062 3.3125 -16.28125 C 4.007812 -16.78125 4.828125 -17.03125 5.765625 -17.03125 C 6.535156 -17.03125 7.125 -16.894531 7.53125 -16.625 C 7.9375 -16.351562 8.207031 -15.992188 8.34375 -15.546875 C 8.488281 -15.097656 8.546875 -14.613281 8.515625 -14.09375 C 8.484375 -13.570312 8.398438 -13.050781 8.265625 -12.53125 Z M 6.0625 -5.421875 C 6.894531 -7.742188 7.664062 -9.660156 8.375 -11.171875 C 9.09375 -12.679688 9.800781 -13.863281 10.5 -14.71875 C 11.195312 -15.570312 11.90625 -16.171875 12.625 -16.515625 C 13.351562 -16.859375 14.132812 -17.03125 14.96875 -17.03125 C 16 -17.03125 16.738281 -16.800781 17.1875 -16.34375 C 17.632812 -15.894531 17.859375 -15.300781 17.859375 -14.5625 C 17.859375 -13.832031 17.71875 -13.039062 17.4375 -12.1875 L 14.296875 -2.71875 C 14.085938 -2.125 14.035156 -1.707031 14.140625 -1.46875 C 14.242188 -1.238281 14.4375 -1.125 14.71875 -1.125 C 15 -1.125 15.304688 -1.273438 15.640625 -1.578125 C 15.984375 -1.890625 16.347656 -2.582031 16.734375 -3.65625 L 17.3125 -5.1875 L 17.921875 -5.1875 L 17.125 -2.859375 C 16.820312 -1.953125 16.429688 -1.265625 15.953125 -0.796875 C 15.472656 -0.328125 14.957031 -0.00390625 14.40625 0.171875 C 13.863281 0.359375 13.335938 0.453125 12.828125 0.453125 C 12.203125 0.453125 11.675781 0.359375 11.25 0.171875 C 10.820312 -0.00390625 10.492188 -0.265625 10.265625 -0.609375 C 9.984375 -1.035156 9.847656 -1.570312 9.859375 -2.21875 C 9.867188 -2.875 10.035156 -3.6875 10.359375 -4.65625 L 13.234375 -13.3125 C 13.367188 -13.644531 13.457031 -13.972656 13.5 -14.296875 C 13.539062 -14.617188 13.53125 -14.882812 13.46875 -15.09375 C 13.40625 -15.3125 13.222656 -15.421875 12.921875 -15.421875 C 12.515625 -15.421875 12.050781 -15.15625 11.53125 -14.625 C 11.019531 -14.101562 10.484375 -13.378906 9.921875 -12.453125 C 9.359375 -11.523438 8.796875 -10.441406 8.234375 -9.203125 C 7.679688 -7.960938 7.148438 -6.640625 6.640625 -5.234375 C 6.128906 -3.835938 5.671875 -2.40625 5.265625 -0.9375 Z M 6.0625 -5.421875 "/></g></g></g><g fill="#d2b48c" fill-opacity="1"><g transform="translate(29.726991, 40.033124)"><g><path d="M 14.96875 -10.546875 C 14.113281 -10.972656 13.367188 -11.5625 12.734375 -12.3125 C 12.109375 -13.0625 11.804688 -13.925781 11.828125 -14.90625 C 11.847656 -15.59375 12.050781 -16.117188 12.4375 -16.484375 C 12.820312 -16.847656 13.316406 -17.03125 13.921875 -17.03125 C 14.734375 -17.03125 15.304688 -16.695312 15.640625 -16.03125 C 15.984375 -15.363281 16.125 -14.46875 16.0625 -13.34375 C 16 -12.144531 15.8125 -10.894531 15.5 -9.59375 C 15.1875 -8.300781 14.757812 -7.054688 14.21875 -5.859375 C 13.675781 -4.671875 12.992188 -3.597656 12.171875 -2.640625 C 11.347656 -1.691406 10.394531 -0.9375 9.3125 -0.375 C 8.226562 0.175781 7.003906 0.453125 5.640625 0.453125 C 4.460938 0.453125 3.539062 0.253906 2.875 -0.140625 C 2.21875 -0.535156 1.753906 -1.035156 1.484375 -1.640625 C 1.222656 -2.253906 1.101562 -2.882812 1.125 -3.53125 C 1.144531 -4.832031 1.53125 -6.164062 2.28125 -7.53125 C 3.03125 -8.90625 4.050781 -10.28125 5.34375 -11.65625 C 6.632812 -13.03125 8.09375 -14.378906 9.71875 -15.703125 C 9.175781 -15.640625 8.691406 -15.46875 8.265625 -15.1875 C 7.835938 -14.914062 7.441406 -14.617188 7.078125 -14.296875 C 6.722656 -13.972656 6.367188 -13.691406 6.015625 -13.453125 C 5.660156 -13.222656 5.289062 -13.109375 4.90625 -13.109375 C 4.539062 -13.109375 4.222656 -13.207031 3.953125 -13.40625 C 3.691406 -13.613281 3.398438 -13.71875 3.078125 -13.71875 C 2.773438 -13.71875 2.53125 -13.597656 2.34375 -13.359375 C 2.164062 -13.128906 1.984375 -12.738281 1.796875 -12.1875 L 1.53125 -11.3125 L 0.9375 -11.3125 L 1.640625 -13.65625 C 2.003906 -14.976562 2.457031 -15.875 3 -16.34375 C 3.539062 -16.820312 4.09375 -17.0625 4.65625 -17.0625 C 5.0625 -17.0625 5.40625 -16.96875 5.6875 -16.78125 C 5.976562 -16.601562 6.289062 -16.425781 6.625 -16.25 C 6.957031 -16.082031 7.390625 -16 7.921875 -16 C 8.265625 -16 8.632812 -16.046875 9.03125 -16.140625 C 9.425781 -16.234375 9.835938 -16.410156 10.265625 -16.671875 L 10.578125 -17.28125 L 11.25 -16.96875 C 10.476562 -15.851562 9.78125 -14.710938 9.15625 -13.546875 C 8.539062 -12.378906 8.007812 -11.210938 7.5625 -10.046875 C 7.113281 -8.878906 6.757812 -7.753906 6.5 -6.671875 C 6.25 -5.597656 6.101562 -4.601562 6.0625 -3.6875 C 6.019531 -2.75 6.113281 -2.066406 6.34375 -1.640625 C 6.582031 -1.210938 6.96875 -1 7.5 -1 C 8.289062 -1 9.039062 -1.195312 9.75 -1.59375 C 10.457031 -1.988281 11.097656 -2.519531 11.671875 -3.1875 C 12.242188 -3.863281 12.753906 -4.613281 13.203125 -5.4375 C 13.660156 -6.257812 14.035156 -7.113281 14.328125 -8 C 14.628906 -8.882812 14.84375 -9.734375 14.96875 -10.546875 Z M 14.96875 -10.546875 "/></g></g></g><g fill="#d2b48c" fill-opacity="1"><g transform="translate(46.562052, 40.033124)"><g><path d="M 5.671875 -21.9375 C 5.710938 -22.851562 6.046875 -23.554688 6.671875 -24.046875 C 7.304688 -24.535156 8.066406 -24.78125 8.953125 -24.78125 C 9.734375 -24.78125 10.332031 -24.59375 10.75 -24.21875 C 11.164062 -23.84375 11.351562 -23.328125 11.3125 -22.671875 C 11.269531 -21.835938 10.925781 -21.15625 10.28125 -20.625 C 9.644531 -20.101562 8.878906 -19.84375 7.984375 -19.84375 C 7.234375 -19.84375 6.648438 -20.03125 6.234375 -20.40625 C 5.816406 -20.78125 5.628906 -21.289062 5.671875 -21.9375 Z M 4.453125 -13.84375 C 4.816406 -14.914062 4.703125 -15.453125 4.109375 -15.453125 C 3.722656 -15.453125 3.367188 -15.257812 3.046875 -14.875 C 2.722656 -14.488281 2.390625 -13.835938 2.046875 -12.921875 L 1.40625 -11.28125 L 0.796875 -11.28125 L 1.703125 -13.71875 C 1.992188 -14.570312 2.367188 -15.234375 2.828125 -15.703125 C 3.296875 -16.179688 3.8125 -16.519531 4.375 -16.71875 C 4.9375 -16.925781 5.53125 -17.03125 6.15625 -17.03125 C 6.90625 -17.03125 7.492188 -16.890625 7.921875 -16.609375 C 8.347656 -16.328125 8.632812 -15.96875 8.78125 -15.53125 C 8.9375 -15.09375 8.988281 -14.613281 8.9375 -14.09375 C 8.894531 -13.570312 8.789062 -13.050781 8.625 -12.53125 L 5.265625 -2.71875 C 5.066406 -2.144531 5.015625 -1.734375 5.109375 -1.484375 C 5.210938 -1.242188 5.410156 -1.125 5.703125 -1.125 C 5.984375 -1.125 6.289062 -1.28125 6.625 -1.59375 C 6.957031 -1.914062 7.328125 -2.601562 7.734375 -3.65625 L 8.296875 -5.1875 L 8.90625 -5.1875 L 8.078125 -2.859375 C 7.773438 -1.972656 7.390625 -1.296875 6.921875 -0.828125 C 6.453125 -0.359375 5.941406 -0.03125 5.390625 0.15625 C 4.847656 0.351562 4.300781 0.453125 3.75 0.453125 C 2.832031 0.453125 2.132812 0.25 1.65625 -0.15625 C 1.175781 -0.5625 0.910156 -1.148438 0.859375 -1.921875 C 0.816406 -2.691406 0.96875 -3.601562 1.3125 -4.65625 Z M 4.453125 -13.84375 "/></g></g></g><g fill="#d2b48c" fill-opacity="1"><g transform="translate(56.88756, 40.033124)"><g><path d="M 12.890625 -16.578125 L 12.796875 -15.9375 L 1.671875 -15.9375 L 1.828125 -16.578125 Z M 5.265625 -2.71875 C 5.109375 -2.164062 5.117188 -1.757812 5.296875 -1.5 C 5.484375 -1.25 5.757812 -1.125 6.125 -1.125 C 6.570312 -1.125 7.019531 -1.347656 7.46875 -1.796875 C 7.914062 -2.242188 8.3125 -2.9375 8.65625 -3.875 L 9.140625 -5.1875 L 9.75 -5.1875 L 9.109375 -3.328125 C 8.679688 -2.046875 8.054688 -1.09375 7.234375 -0.46875 C 6.410156 0.144531 5.429688 0.453125 4.296875 0.453125 C 3.316406 0.453125 2.554688 0.226562 2.015625 -0.21875 C 1.484375 -0.664062 1.171875 -1.28125 1.078125 -2.0625 C 0.984375 -2.84375 1.0625 -3.707031 1.3125 -4.65625 L 6.125 -21.359375 C 7.039062 -21.378906 7.875 -21.421875 8.625 -21.484375 C 9.375 -21.546875 10.085938 -21.648438 10.765625 -21.796875 Z M 5.265625 -2.71875 "/></g></g></g><g fill="#d2b48c" fill-opacity="1"><g transform="translate(68.207135, 40.033124)"><g><path d="M 4.203125 -6.953125 C 5.078125 -7.296875 5.910156 -7.679688 6.703125 -8.109375 C 7.492188 -8.535156 8.164062 -9.003906 8.71875 -9.515625 C 9.550781 -10.265625 10.21875 -11.132812 10.71875 -12.125 C 11.226562 -13.125 11.484375 -14.203125 11.484375 -15.359375 C 11.484375 -15.785156 11.4375 -16.066406 11.34375 -16.203125 C 11.257812 -16.347656 11.132812 -16.421875 10.96875 -16.421875 C 10.5 -16.421875 9.988281 -16.175781 9.4375 -15.6875 C 8.894531 -15.207031 8.351562 -14.566406 7.8125 -13.765625 C 7.28125 -12.960938 6.796875 -12.046875 6.359375 -11.015625 C 5.921875 -9.992188 5.566406 -8.925781 5.296875 -7.8125 C 5.035156 -6.707031 4.90625 -5.628906 4.90625 -4.578125 C 4.90625 -3.390625 5.132812 -2.570312 5.59375 -2.125 C 6.050781 -1.6875 6.644531 -1.46875 7.375 -1.46875 C 7.945312 -1.46875 8.660156 -1.660156 9.515625 -2.046875 C 10.378906 -2.429688 11.226562 -3.117188 12.0625 -4.109375 L 12.5625 -3.84375 C 12.113281 -3.144531 11.523438 -2.460938 10.796875 -1.796875 C 10.078125 -1.128906 9.234375 -0.585938 8.265625 -0.171875 C 7.304688 0.242188 6.257812 0.453125 5.125 0.453125 C 4.164062 0.453125 3.304688 0.28125 2.546875 -0.0625 C 1.785156 -0.40625 1.1875 -0.910156 0.75 -1.578125 C 0.3125 -2.253906 0.09375 -3.085938 0.09375 -4.078125 C 0.09375 -5.203125 0.28125 -6.363281 0.65625 -7.5625 C 1.03125 -8.757812 1.554688 -9.921875 2.234375 -11.046875 C 2.921875 -12.171875 3.742188 -13.1875 4.703125 -14.09375 C 5.671875 -15 6.742188 -15.710938 7.921875 -16.234375 C 9.097656 -16.765625 10.347656 -17.03125 11.671875 -17.03125 C 12.609375 -17.03125 13.394531 -16.820312 14.03125 -16.40625 C 14.675781 -15.988281 15 -15.351562 15 -14.5 C 15 -13.65625 14.769531 -12.867188 14.3125 -12.140625 C 13.851562 -11.421875 13.238281 -10.757812 12.46875 -10.15625 C 11.695312 -9.5625 10.835938 -9.03125 9.890625 -8.5625 C 8.941406 -8.09375 7.96875 -7.6875 6.96875 -7.34375 C 5.976562 -7 5.046875 -6.734375 4.171875 -6.546875 Z M 4.203125 -6.953125 "/></g></g></g><g fill="#d2b48c" fill-opacity="1"><g transform="translate(83.246457, 40.033124)"><g><path d="M 13.59375 -2.71875 C 13.40625 -2.207031 13.359375 -1.8125 13.453125 -1.53125 C 13.546875 -1.257812 13.742188 -1.125 14.046875 -1.125 C 14.316406 -1.125 14.617188 -1.285156 14.953125 -1.609375 C 15.285156 -1.941406 15.632812 -2.625 16 -3.65625 L 16.546875 -5.1875 L 17.15625 -5.1875 L 16.390625 -2.859375 C 16.109375 -1.972656 15.734375 -1.289062 15.265625 -0.8125 C 14.796875 -0.332031 14.285156 -0.00390625 13.734375 0.171875 C 13.191406 0.359375 12.664062 0.453125 12.15625 0.453125 C 10.820312 0.453125 9.976562 -0.0390625 9.625 -1.03125 C 9.425781 -1.4375 9.335938 -1.941406 9.359375 -2.546875 C 9.378906 -3.160156 9.507812 -3.863281 9.75 -4.65625 L 14.203125 -21.390625 C 14.421875 -22.109375 14.398438 -22.640625 14.140625 -22.984375 C 13.878906 -23.328125 13.226562 -23.5 12.1875 -23.5 L 12.375 -24.171875 C 13.894531 -24.191406 15.253906 -24.3125 16.453125 -24.53125 C 17.648438 -24.757812 18.789062 -25.078125 19.875 -25.484375 Z M 5.90625 -1.15625 C 6.257812 -1.15625 6.679688 -1.390625 7.171875 -1.859375 C 7.671875 -2.328125 8.195312 -3.023438 8.75 -3.953125 C 9.3125 -4.890625 9.847656 -6.035156 10.359375 -7.390625 C 10.867188 -8.742188 11.328125 -10.300781 11.734375 -12.0625 L 11.25 -8.59375 C 10.550781 -6.539062 9.851562 -4.835938 9.15625 -3.484375 C 8.457031 -2.140625 7.695312 -1.144531 6.875 -0.5 C 6.050781 0.132812 5.070312 0.453125 3.9375 0.453125 C 3.238281 0.453125 2.597656 0.289062 2.015625 -0.03125 C 1.441406 -0.351562 0.984375 -0.835938 0.640625 -1.484375 C 0.296875 -2.140625 0.125 -2.992188 0.125 -4.046875 C 0.125 -5.023438 0.28125 -6.097656 0.59375 -7.265625 C 0.90625 -8.429688 1.363281 -9.578125 1.96875 -10.703125 C 2.582031 -11.835938 3.320312 -12.882812 4.1875 -13.84375 C 5.050781 -14.8125 6.035156 -15.582031 7.140625 -16.15625 C 8.253906 -16.738281 9.476562 -17.03125 10.8125 -17.03125 C 11.488281 -17.03125 11.992188 -16.875 12.328125 -16.5625 C 12.660156 -16.25 12.859375 -15.816406 12.921875 -15.265625 L 12.671875 -14.625 C 12.578125 -15.175781 12.421875 -15.585938 12.203125 -15.859375 C 11.992188 -16.140625 11.675781 -16.28125 11.25 -16.28125 C 10.695312 -16.28125 10.117188 -16.03125 9.515625 -15.53125 C 8.921875 -15.03125 8.347656 -14.347656 7.796875 -13.484375 C 7.253906 -12.617188 6.757812 -11.632812 6.3125 -10.53125 C 5.863281 -9.425781 5.507812 -8.257812 5.25 -7.03125 C 5 -5.800781 4.875 -4.578125 4.875 -3.359375 C 4.875 -2.640625 4.953125 -2.09375 5.109375 -1.71875 C 5.273438 -1.34375 5.539062 -1.15625 5.90625 -1.15625 Z M 5.90625 -1.15625 "/></g></g></g><g fill="#d2b48c" fill-opacity="1"><g transform="translate(101.813117, 40.033124)"><g><path d="M 3.8125 -6.375 C 4.238281 -8.039062 4.53125 -9.679688 4.6875 -11.296875 C 4.851562 -12.910156 4.972656 -14.457031 5.046875 -15.9375 C 5.117188 -17.425781 5.222656 -18.804688 5.359375 -20.078125 C 5.378906 -20.628906 5.453125 -21.203125 5.578125 -21.796875 C 5.703125 -22.398438 5.894531 -22.945312 6.15625 -23.4375 C 6.414062 -23.925781 6.75 -24.320312 7.15625 -24.625 C 7.5625 -24.925781 8.070312 -25.078125 8.6875 -25.078125 C 9.4375 -25.078125 10 -24.847656 10.375 -24.390625 C 10.75 -23.941406 10.90625 -23.316406 10.84375 -22.515625 C 10.726562 -21.503906 10.425781 -20.394531 9.9375 -19.1875 C 9.445312 -17.976562 8.851562 -16.691406 8.15625 -15.328125 C 7.46875 -13.960938 6.78125 -12.523438 6.09375 -11.015625 C 5.40625 -9.503906 4.835938 -7.925781 4.390625 -6.28125 Z M 0.765625 -1.46875 C 0.765625 -2.320312 1.066406 -3.035156 1.671875 -3.609375 C 2.285156 -4.191406 3.019531 -4.484375 3.875 -4.484375 C 4.5625 -4.484375 5.097656 -4.3125 5.484375 -3.96875 C 5.867188 -3.632812 6.0625 -3.15625 6.0625 -2.53125 C 6.0625 -2.019531 5.921875 -1.535156 5.640625 -1.078125 C 5.359375 -0.617188 4.976562 -0.25 4.5 0.03125 C 4.019531 0.3125 3.492188 0.453125 2.921875 0.453125 C 2.253906 0.453125 1.726562 0.28125 1.34375 -0.0625 C 0.957031 -0.40625 0.765625 -0.875 0.765625 -1.46875 Z M 0.765625 -1.46875 "/></g></g></g></svg>