<svg xmlns="http://www.w3.org/2000/svg" xmlns:xlink="http://www.w3.org/1999/xlink" width="489" zoomAndPan="magnify" viewBox="0 0 366.75 61.499998" height="82" preserveAspectRatio="xMidYMid meet" version="1.0"><defs><g/></defs><g fill="#4a4a4a" fill-opacity="1"><g transform="translate(10.957532, 23.016175)"><g><path d="M 10.578125 -12.734375 L 10.578125 -12.375 C 10.347656 -12.320312 10.117188 -12.171875 9.890625 -11.921875 C 9.660156 -11.679688 9.410156 -11.296875 9.140625 -10.765625 L 5.5 -3.578125 L 5.203125 -3.578125 L 0.984375 -11.34375 C 0.742188 -11.789062 0.539062 -12.070312 0.375 -12.1875 C 0.21875 -12.300781 0.078125 -12.359375 -0.046875 -12.359375 L -0.046875 -12.734375 C 0.191406 -12.722656 0.4375 -12.707031 0.6875 -12.6875 C 0.945312 -12.675781 1.226562 -12.671875 1.53125 -12.671875 C 1.925781 -12.671875 2.347656 -12.675781 2.796875 -12.6875 C 3.242188 -12.695312 3.660156 -12.710938 4.046875 -12.734375 L 4.046875 -12.359375 C 3.742188 -12.359375 3.476562 -12.320312 3.25 -12.25 C 3.019531 -12.175781 2.867188 -12.039062 2.796875 -11.84375 C 2.734375 -11.65625 2.789062 -11.390625 2.96875 -11.046875 L 6 -5.21875 L 5.859375 -5.109375 L 8.25 -9.875 C 8.59375 -10.53125 8.757812 -11.035156 8.75 -11.390625 C 8.738281 -11.753906 8.59375 -12.003906 8.3125 -12.140625 C 8.039062 -12.285156 7.65625 -12.363281 7.15625 -12.375 L 7.15625 -12.734375 C 7.5 -12.722656 7.851562 -12.707031 8.21875 -12.6875 C 8.582031 -12.675781 8.914062 -12.671875 9.21875 -12.671875 C 9.53125 -12.671875 9.789062 -12.675781 10 -12.6875 C 10.207031 -12.707031 10.398438 -12.722656 10.578125 -12.734375 Z M 6.3125 -5.46875 L 6.3125 -1.90625 C 6.3125 -1.476562 6.347656 -1.15625 6.421875 -0.9375 C 6.492188 -0.71875 6.632812 -0.570312 6.84375 -0.5 C 7.050781 -0.425781 7.359375 -0.378906 7.765625 -0.359375 L 7.765625 0 C 7.492188 -0.0195312 7.148438 -0.03125 6.734375 -0.03125 C 6.316406 -0.0390625 5.898438 -0.046875 5.484375 -0.046875 C 5.015625 -0.046875 4.578125 -0.0390625 4.171875 -0.03125 C 3.765625 -0.03125 3.4375 -0.0195312 3.1875 0 L 3.1875 -0.359375 C 3.59375 -0.378906 3.898438 -0.425781 4.109375 -0.5 C 4.316406 -0.570312 4.457031 -0.71875 4.53125 -0.9375 C 4.601562 -1.15625 4.640625 -1.476562 4.640625 -1.90625 L 4.640625 -5.59375 L 5.609375 -4.484375 Z M 6.3125 -5.46875 "/></g></g></g><g fill="#4a4a4a" fill-opacity="1"><g transform="translate(21.582539, 23.016175)"><g><path d="M 6.671875 -12.984375 C 7.804688 -12.984375 8.800781 -12.722656 9.65625 -12.203125 C 10.519531 -11.691406 11.1875 -10.953125 11.65625 -9.984375 C 12.132812 -9.023438 12.375 -7.851562 12.375 -6.46875 C 12.375 -5.125 12.128906 -3.945312 11.640625 -2.9375 C 11.160156 -1.9375 10.488281 -1.15625 9.625 -0.59375 C 8.757812 -0.03125 7.769531 0.25 6.65625 0.25 C 5.519531 0.25 4.519531 -0.00390625 3.65625 -0.515625 C 2.800781 -1.035156 2.132812 -1.78125 1.65625 -2.75 C 1.1875 -3.71875 0.953125 -4.890625 0.953125 -6.265625 C 0.953125 -7.597656 1.195312 -8.769531 1.6875 -9.78125 C 2.175781 -10.789062 2.847656 -11.578125 3.703125 -12.140625 C 4.566406 -12.703125 5.554688 -12.984375 6.671875 -12.984375 Z M 6.59375 -12.65625 C 5.820312 -12.65625 5.144531 -12.382812 4.5625 -11.84375 C 3.988281 -11.3125 3.539062 -10.570312 3.21875 -9.625 C 2.90625 -8.675781 2.75 -7.578125 2.75 -6.328125 C 2.75 -5.054688 2.925781 -3.945312 3.28125 -3 C 3.632812 -2.0625 4.113281 -1.335938 4.71875 -0.828125 C 5.320312 -0.328125 5.988281 -0.078125 6.71875 -0.078125 C 7.5 -0.078125 8.175781 -0.34375 8.75 -0.875 C 9.332031 -1.414062 9.78125 -2.160156 10.09375 -3.109375 C 10.414062 -4.066406 10.578125 -5.164062 10.578125 -6.40625 C 10.578125 -7.6875 10.398438 -8.789062 10.046875 -9.71875 C 9.691406 -10.65625 9.210938 -11.378906 8.609375 -11.890625 C 8.015625 -12.398438 7.34375 -12.65625 6.59375 -12.65625 Z M 6.59375 -12.65625 "/></g></g></g><g fill="#4a4a4a" fill-opacity="1"><g transform="translate(34.90425, 23.016175)"><g><path d="M 11.78125 -12.734375 L 11.78125 -12.375 C 11.375 -12.363281 11.0625 -12.300781 10.84375 -12.1875 C 10.632812 -12.082031 10.492188 -11.910156 10.421875 -11.671875 C 10.359375 -11.429688 10.328125 -11.085938 10.328125 -10.640625 L 10.328125 -5.234375 C 10.328125 -4.390625 10.269531 -3.65625 10.15625 -3.03125 C 10.050781 -2.414062 9.859375 -1.878906 9.578125 -1.421875 C 9.285156 -0.921875 8.847656 -0.515625 8.265625 -0.203125 C 7.691406 0.0976562 7.035156 0.25 6.296875 0.25 C 5.722656 0.25 5.171875 0.179688 4.640625 0.046875 C 4.117188 -0.0859375 3.660156 -0.34375 3.265625 -0.71875 C 2.921875 -1.050781 2.648438 -1.40625 2.453125 -1.78125 C 2.253906 -2.15625 2.117188 -2.609375 2.046875 -3.140625 C 1.972656 -3.679688 1.9375 -4.359375 1.9375 -5.171875 L 1.9375 -10.828125 C 1.9375 -11.265625 1.898438 -11.585938 1.828125 -11.796875 C 1.753906 -12.015625 1.613281 -12.160156 1.40625 -12.234375 C 1.195312 -12.316406 0.890625 -12.363281 0.484375 -12.375 L 0.484375 -12.734375 C 0.734375 -12.722656 1.0625 -12.707031 1.46875 -12.6875 C 1.882812 -12.675781 2.320312 -12.671875 2.78125 -12.671875 C 3.207031 -12.671875 3.625 -12.675781 4.03125 -12.6875 C 4.445312 -12.707031 4.796875 -12.722656 5.078125 -12.734375 L 5.078125 -12.375 C 4.660156 -12.363281 4.347656 -12.316406 4.140625 -12.234375 C 3.929688 -12.160156 3.789062 -12.015625 3.71875 -11.796875 C 3.644531 -11.585938 3.609375 -11.265625 3.609375 -10.828125 L 3.609375 -4.875 C 3.609375 -4.257812 3.640625 -3.675781 3.703125 -3.125 C 3.765625 -2.582031 3.890625 -2.101562 4.078125 -1.6875 C 4.265625 -1.28125 4.546875 -0.957031 4.921875 -0.71875 C 5.304688 -0.488281 5.816406 -0.375 6.453125 -0.375 C 7.367188 -0.375 8.070312 -0.570312 8.5625 -0.96875 C 9.0625 -1.375 9.410156 -1.929688 9.609375 -2.640625 C 9.804688 -3.347656 9.90625 -4.144531 9.90625 -5.03125 L 9.90625 -10.640625 C 9.90625 -11.085938 9.851562 -11.429688 9.75 -11.671875 C 9.65625 -11.910156 9.488281 -12.082031 9.25 -12.1875 C 9.007812 -12.300781 8.679688 -12.363281 8.265625 -12.375 L 8.265625 -12.734375 C 8.484375 -12.722656 8.769531 -12.707031 9.125 -12.6875 C 9.476562 -12.675781 9.804688 -12.671875 10.109375 -12.671875 C 10.421875 -12.671875 10.726562 -12.675781 11.03125 -12.6875 C 11.332031 -12.707031 11.582031 -12.722656 11.78125 -12.734375 Z M 11.78125 -12.734375 "/></g></g></g><g fill="#4a4a4a" fill-opacity="1"><g transform="translate(47.165251, 23.016175)"><g/></g></g><g fill="#4a4a4a" fill-opacity="1"><g transform="translate(51.641775, 23.016175)"><g><path d="M 5.8125 -12.828125 L 10.203125 -1.515625 C 10.378906 -1.054688 10.582031 -0.75 10.8125 -0.59375 C 11.039062 -0.445312 11.25 -0.367188 11.4375 -0.359375 L 11.4375 0 C 11.195312 -0.0195312 10.898438 -0.03125 10.546875 -0.03125 C 10.203125 -0.0390625 9.859375 -0.046875 9.515625 -0.046875 C 9.046875 -0.046875 8.609375 -0.0390625 8.203125 -0.03125 C 7.796875 -0.03125 7.46875 -0.0195312 7.21875 0 L 7.21875 -0.359375 C 7.820312 -0.378906 8.207031 -0.484375 8.375 -0.671875 C 8.539062 -0.859375 8.503906 -1.257812 8.265625 -1.875 L 4.921875 -10.8125 L 5.21875 -11.046875 L 2.09375 -2.90625 C 1.894531 -2.425781 1.773438 -2.019531 1.734375 -1.6875 C 1.703125 -1.363281 1.738281 -1.101562 1.84375 -0.90625 C 1.945312 -0.71875 2.117188 -0.582031 2.359375 -0.5 C 2.609375 -0.414062 2.921875 -0.367188 3.296875 -0.359375 L 3.296875 0 C 2.953125 -0.0195312 2.597656 -0.03125 2.234375 -0.03125 C 1.867188 -0.0390625 1.53125 -0.046875 1.21875 -0.046875 C 0.914062 -0.046875 0.660156 -0.0390625 0.453125 -0.03125 C 0.242188 -0.03125 0.0507812 -0.0195312 -0.125 0 L -0.125 -0.359375 C 0.113281 -0.421875 0.359375 -0.5625 0.609375 -0.78125 C 0.859375 -1 1.085938 -1.378906 1.296875 -1.921875 L 5.515625 -12.828125 C 5.566406 -12.828125 5.613281 -12.828125 5.65625 -12.828125 C 5.707031 -12.828125 5.757812 -12.828125 5.8125 -12.828125 Z M 8 -5.171875 L 8 -4.8125 L 2.640625 -4.8125 L 2.828125 -5.171875 Z M 8 -5.171875 "/></g></g></g><g fill="#4a4a4a" fill-opacity="1"><g transform="translate(62.967926, 23.016175)"><g><path d="M 0.75 -12.734375 C 1.007812 -12.722656 1.34375 -12.707031 1.75 -12.6875 C 2.15625 -12.675781 2.554688 -12.671875 2.953125 -12.671875 C 3.515625 -12.671875 4.050781 -12.675781 4.5625 -12.6875 C 5.082031 -12.707031 5.453125 -12.71875 5.671875 -12.71875 C 6.640625 -12.71875 7.441406 -12.578125 8.078125 -12.296875 C 8.722656 -12.023438 9.203125 -11.648438 9.515625 -11.171875 C 9.835938 -10.703125 10 -10.171875 10 -9.578125 C 10 -9.222656 9.925781 -8.84375 9.78125 -8.4375 C 9.632812 -8.03125 9.382812 -7.644531 9.03125 -7.28125 C 8.675781 -6.925781 8.191406 -6.628906 7.578125 -6.390625 C 6.972656 -6.160156 6.203125 -6.046875 5.265625 -6.046875 L 3.546875 -6.046875 L 3.546875 -6.40625 L 5.09375 -6.40625 C 5.9375 -6.40625 6.582031 -6.539062 7.03125 -6.8125 C 7.488281 -7.082031 7.796875 -7.441406 7.953125 -7.890625 C 8.117188 -8.335938 8.203125 -8.835938 8.203125 -9.390625 C 8.203125 -10.335938 7.976562 -11.070312 7.53125 -11.59375 C 7.082031 -12.113281 6.3125 -12.375 5.21875 -12.375 C 4.664062 -12.375 4.304688 -12.269531 4.140625 -12.0625 C 3.972656 -11.863281 3.890625 -11.453125 3.890625 -10.828125 L 3.890625 -1.90625 C 3.890625 -1.476562 3.921875 -1.15625 3.984375 -0.9375 C 4.054688 -0.71875 4.195312 -0.570312 4.40625 -0.5 C 4.625 -0.425781 4.9375 -0.378906 5.34375 -0.359375 L 5.34375 0 C 5.0625 -0.0195312 4.710938 -0.03125 4.296875 -0.03125 C 3.890625 -0.0390625 3.476562 -0.046875 3.0625 -0.046875 C 2.59375 -0.046875 2.15625 -0.0390625 1.75 -0.03125 C 1.34375 -0.03125 1.007812 -0.0195312 0.75 0 L 0.75 -0.359375 C 1.15625 -0.378906 1.460938 -0.425781 1.671875 -0.5 C 1.890625 -0.570312 2.035156 -0.71875 2.109375 -0.9375 C 2.179688 -1.15625 2.21875 -1.476562 2.21875 -1.90625 L 2.21875 -10.828125 C 2.21875 -11.265625 2.179688 -11.585938 2.109375 -11.796875 C 2.035156 -12.015625 1.890625 -12.160156 1.671875 -12.234375 C 1.460938 -12.316406 1.15625 -12.363281 0.75 -12.375 Z M 3.609375 -6.34375 C 4.265625 -6.320312 4.773438 -6.296875 5.140625 -6.265625 C 5.515625 -6.234375 5.816406 -6.207031 6.046875 -6.1875 C 6.285156 -6.164062 6.507812 -6.132812 6.71875 -6.09375 C 7.53125 -5.96875 8.113281 -5.726562 8.46875 -5.375 C 8.820312 -5.019531 9.082031 -4.46875 9.25 -3.71875 L 9.6875 -1.890625 C 9.8125 -1.359375 9.9375 -0.972656 10.0625 -0.734375 C 10.1875 -0.503906 10.378906 -0.394531 10.640625 -0.40625 C 10.847656 -0.425781 11.019531 -0.492188 11.15625 -0.609375 C 11.289062 -0.734375 11.4375 -0.894531 11.59375 -1.09375 L 11.875 -0.90625 C 11.613281 -0.53125 11.347656 -0.242188 11.078125 -0.046875 C 10.816406 0.148438 10.441406 0.25 9.953125 0.25 C 9.503906 0.25 9.109375 0.117188 8.765625 -0.140625 C 8.429688 -0.410156 8.179688 -0.925781 8.015625 -1.6875 L 7.625 -3.484375 C 7.519531 -4.003906 7.394531 -4.453125 7.25 -4.828125 C 7.113281 -5.203125 6.921875 -5.5 6.671875 -5.71875 C 6.429688 -5.9375 6.070312 -6.046875 5.59375 -6.046875 L 3.65625 -6.046875 Z M 3.609375 -6.34375 "/></g></g></g><g fill="#4a4a4a" fill-opacity="1"><g transform="translate(74.617677, 23.016175)"><g><path d="M 9.734375 -12.734375 C 9.679688 -12.316406 9.644531 -11.910156 9.625 -11.515625 C 9.613281 -11.117188 9.609375 -10.816406 9.609375 -10.609375 C 9.609375 -10.390625 9.613281 -10.179688 9.625 -9.984375 C 9.632812 -9.785156 9.644531 -9.625 9.65625 -9.5 L 9.25 -9.5 C 9.175781 -10.207031 9.070312 -10.765625 8.9375 -11.171875 C 8.800781 -11.585938 8.570312 -11.878906 8.25 -12.046875 C 7.9375 -12.222656 7.460938 -12.3125 6.828125 -12.3125 L 5.34375 -12.3125 C 4.9375 -12.3125 4.625 -12.28125 4.40625 -12.21875 C 4.195312 -12.15625 4.054688 -12.015625 3.984375 -11.796875 C 3.921875 -11.585938 3.890625 -11.265625 3.890625 -10.828125 L 3.890625 -1.90625 C 3.890625 -1.476562 3.921875 -1.15625 3.984375 -0.9375 C 4.054688 -0.71875 4.195312 -0.570312 4.40625 -0.5 C 4.625 -0.4375 4.9375 -0.40625 5.34375 -0.40625 L 6.65625 -0.40625 C 7.40625 -0.40625 7.972656 -0.507812 8.359375 -0.71875 C 8.753906 -0.925781 9.039062 -1.257812 9.21875 -1.71875 C 9.394531 -2.175781 9.523438 -2.800781 9.609375 -3.59375 L 10.015625 -3.59375 C 9.984375 -3.269531 9.96875 -2.835938 9.96875 -2.296875 C 9.96875 -2.066406 9.972656 -1.738281 9.984375 -1.3125 C 10.003906 -0.894531 10.039062 -0.457031 10.09375 0 C 9.476562 -0.0195312 8.785156 -0.03125 8.015625 -0.03125 C 7.253906 -0.0390625 6.570312 -0.046875 5.96875 -0.046875 C 5.707031 -0.046875 5.367188 -0.046875 4.953125 -0.046875 C 4.535156 -0.046875 4.085938 -0.0390625 3.609375 -0.03125 C 3.128906 -0.03125 2.644531 -0.0234375 2.15625 -0.015625 C 1.664062 -0.015625 1.195312 -0.0078125 0.75 0 L 0.75 -0.359375 C 1.15625 -0.378906 1.460938 -0.425781 1.671875 -0.5 C 1.890625 -0.570312 2.035156 -0.71875 2.109375 -0.9375 C 2.179688 -1.15625 2.21875 -1.476562 2.21875 -1.90625 L 2.21875 -10.828125 C 2.21875 -11.265625 2.179688 -11.585938 2.109375 -11.796875 C 2.035156 -12.015625 1.890625 -12.160156 1.671875 -12.234375 C 1.460938 -12.316406 1.15625 -12.363281 0.75 -12.375 L 0.75 -12.734375 C 1.195312 -12.722656 1.664062 -12.710938 2.15625 -12.703125 C 2.644531 -12.703125 3.128906 -12.695312 3.609375 -12.6875 C 4.085938 -12.675781 4.535156 -12.671875 4.953125 -12.671875 C 5.367188 -12.671875 5.707031 -12.671875 5.96875 -12.671875 C 6.519531 -12.671875 7.144531 -12.675781 7.84375 -12.6875 C 8.550781 -12.695312 9.179688 -12.710938 9.734375 -12.734375 Z M 6.640625 -6.578125 C 6.640625 -6.578125 6.640625 -6.515625 6.640625 -6.390625 C 6.640625 -6.273438 6.640625 -6.21875 6.640625 -6.21875 L 3.34375 -6.21875 C 3.34375 -6.21875 3.34375 -6.273438 3.34375 -6.390625 C 3.34375 -6.515625 3.34375 -6.578125 3.34375 -6.578125 Z M 7.15625 -8.953125 C 7.101562 -8.273438 7.082031 -7.753906 7.09375 -7.390625 C 7.101562 -7.035156 7.109375 -6.707031 7.109375 -6.40625 C 7.109375 -6.101562 7.113281 -5.769531 7.125 -5.40625 C 7.132812 -5.050781 7.164062 -4.53125 7.21875 -3.84375 L 6.796875 -3.84375 C 6.742188 -4.226562 6.6875 -4.601562 6.625 -4.96875 C 6.5625 -5.332031 6.414062 -5.628906 6.1875 -5.859375 C 5.96875 -6.097656 5.597656 -6.21875 5.078125 -6.21875 L 5.078125 -6.578125 C 5.472656 -6.578125 5.773438 -6.65625 5.984375 -6.8125 C 6.191406 -6.976562 6.34375 -7.1875 6.4375 -7.4375 C 6.53125 -7.695312 6.59375 -7.957031 6.625 -8.21875 C 6.664062 -8.488281 6.707031 -8.734375 6.75 -8.953125 Z M 7.15625 -8.953125 "/></g></g></g><g fill="#d2b48c" fill-opacity="1"><g transform="translate(10.957532, 45.343755)"><g><path d="M 5.65625 -21.890625 C 5.707031 -22.804688 6.046875 -23.507812 6.671875 -24 C 7.296875 -24.488281 8.046875 -24.734375 8.921875 -24.734375 C 9.710938 -24.734375 10.316406 -24.546875 10.734375 -24.171875 C 11.148438 -23.796875 11.335938 -23.28125 11.296875 -22.625 C 11.253906 -21.789062 10.910156 -21.113281 10.265625 -20.59375 C 9.628906 -20.070312 8.863281 -19.8125 7.96875 -19.8125 C 7.21875 -19.8125 6.632812 -19.992188 6.21875 -20.359375 C 5.800781 -20.734375 5.613281 -21.242188 5.65625 -21.890625 Z M 4.453125 -13.828125 C 4.804688 -14.890625 4.6875 -15.421875 4.09375 -15.421875 C 3.707031 -15.421875 3.351562 -15.226562 3.03125 -14.84375 C 2.71875 -14.457031 2.390625 -13.804688 2.046875 -12.890625 L 1.40625 -11.265625 L 0.796875 -11.265625 L 1.703125 -13.703125 C 1.992188 -14.546875 2.367188 -15.203125 2.828125 -15.671875 C 3.285156 -16.148438 3.796875 -16.488281 4.359375 -16.6875 C 4.929688 -16.882812 5.523438 -16.984375 6.140625 -16.984375 C 6.890625 -16.984375 7.476562 -16.84375 7.90625 -16.5625 C 8.332031 -16.289062 8.617188 -15.9375 8.765625 -15.5 C 8.910156 -15.0625 8.960938 -14.582031 8.921875 -14.0625 C 8.878906 -13.539062 8.773438 -13.023438 8.609375 -12.515625 L 5.25 -2.71875 C 5.050781 -2.144531 5 -1.734375 5.09375 -1.484375 C 5.195312 -1.242188 5.398438 -1.125 5.703125 -1.125 C 5.972656 -1.125 6.273438 -1.28125 6.609375 -1.59375 C 6.941406 -1.914062 7.3125 -2.597656 7.71875 -3.640625 L 8.28125 -5.1875 L 8.890625 -5.1875 L 8.0625 -2.84375 C 7.757812 -1.96875 7.375 -1.296875 6.90625 -0.828125 C 6.4375 -0.359375 5.929688 -0.03125 5.390625 0.15625 C 4.847656 0.351562 4.300781 0.453125 3.75 0.453125 C 2.832031 0.453125 2.128906 0.25 1.640625 -0.15625 C 1.160156 -0.5625 0.898438 -1.148438 0.859375 -1.921875 C 0.816406 -2.691406 0.96875 -3.597656 1.3125 -4.640625 Z M 4.453125 -13.828125 "/></g></g></g><g fill="#d2b48c" fill-opacity="1"><g transform="translate(21.261209, 45.343755)"><g><path d="M 5.03125 0 L 0.515625 0 L 4.390625 -13.828125 C 4.492188 -14.117188 4.5625 -14.390625 4.59375 -14.640625 C 4.625 -14.890625 4.597656 -15.082031 4.515625 -15.21875 C 4.429688 -15.351562 4.269531 -15.421875 4.03125 -15.421875 C 3.644531 -15.421875 3.296875 -15.242188 2.984375 -14.890625 C 2.679688 -14.546875 2.347656 -13.878906 1.984375 -12.890625 L 1.375 -11.265625 L 0.765625 -11.265625 L 1.625 -13.703125 C 2.050781 -14.910156 2.613281 -15.757812 3.3125 -16.25 C 4.007812 -16.738281 4.828125 -16.984375 5.765625 -16.984375 C 6.523438 -16.984375 7.109375 -16.847656 7.515625 -16.578125 C 7.921875 -16.316406 8.191406 -15.960938 8.328125 -15.515625 C 8.472656 -15.066406 8.53125 -14.582031 8.5 -14.0625 C 8.46875 -13.539062 8.382812 -13.023438 8.25 -12.515625 Z M 6.046875 -5.40625 C 6.878906 -7.726562 7.648438 -9.640625 8.359375 -11.140625 C 9.078125 -12.648438 9.78125 -13.832031 10.46875 -14.6875 C 11.164062 -15.539062 11.878906 -16.132812 12.609375 -16.46875 C 13.335938 -16.8125 14.113281 -16.984375 14.9375 -16.984375 C 15.96875 -16.984375 16.707031 -16.757812 17.15625 -16.3125 C 17.601562 -15.863281 17.828125 -15.269531 17.828125 -14.53125 C 17.828125 -13.800781 17.6875 -13.007812 17.40625 -12.15625 L 14.265625 -2.71875 C 14.054688 -2.125 14.003906 -1.707031 14.109375 -1.46875 C 14.210938 -1.238281 14.40625 -1.125 14.6875 -1.125 C 14.96875 -1.125 15.273438 -1.273438 15.609375 -1.578125 C 15.953125 -1.890625 16.316406 -2.578125 16.703125 -3.640625 L 17.28125 -5.1875 L 17.890625 -5.1875 L 17.09375 -2.84375 C 16.789062 -1.945312 16.398438 -1.265625 15.921875 -0.796875 C 15.441406 -0.328125 14.925781 -0.00390625 14.375 0.171875 C 13.832031 0.359375 13.304688 0.453125 12.796875 0.453125 C 12.179688 0.453125 11.660156 0.359375 11.234375 0.171875 C 10.804688 -0.00390625 10.472656 -0.265625 10.234375 -0.609375 C 9.960938 -1.035156 9.832031 -1.570312 9.84375 -2.21875 C 9.851562 -2.875 10.019531 -3.679688 10.34375 -4.640625 L 13.21875 -13.28125 C 13.34375 -13.625 13.425781 -13.953125 13.46875 -14.265625 C 13.507812 -14.585938 13.5 -14.851562 13.4375 -15.0625 C 13.375 -15.28125 13.191406 -15.390625 12.890625 -15.390625 C 12.484375 -15.390625 12.023438 -15.128906 11.515625 -14.609375 C 11.003906 -14.085938 10.46875 -13.363281 9.90625 -12.4375 C 9.34375 -11.507812 8.78125 -10.425781 8.21875 -9.1875 C 7.664062 -7.945312 7.132812 -6.628906 6.625 -5.234375 C 6.113281 -3.835938 5.65625 -2.398438 5.25 -0.921875 Z M 6.046875 -5.40625 "/></g></g></g><g fill="#d2b48c" fill-opacity="1"><g transform="translate(40.55659, 45.343755)"><g><path d="M 14.9375 -10.53125 C 14.082031 -10.957031 13.34375 -11.539062 12.71875 -12.28125 C 12.09375 -13.03125 11.789062 -13.894531 11.8125 -14.875 C 11.832031 -15.5625 12.03125 -16.082031 12.40625 -16.4375 C 12.789062 -16.800781 13.285156 -16.984375 13.890625 -16.984375 C 14.703125 -16.984375 15.273438 -16.65625 15.609375 -16 C 15.953125 -15.34375 16.09375 -14.445312 16.03125 -13.3125 C 15.96875 -12.113281 15.78125 -10.867188 15.46875 -9.578125 C 15.164062 -8.285156 14.738281 -7.039062 14.1875 -5.84375 C 13.644531 -4.65625 12.960938 -3.585938 12.140625 -2.640625 C 11.316406 -1.691406 10.367188 -0.9375 9.296875 -0.375 C 8.222656 0.175781 7 0.453125 5.625 0.453125 C 4.457031 0.453125 3.539062 0.253906 2.875 -0.140625 C 2.21875 -0.535156 1.753906 -1.035156 1.484375 -1.640625 C 1.222656 -2.253906 1.101562 -2.878906 1.125 -3.515625 C 1.144531 -4.816406 1.523438 -6.148438 2.265625 -7.515625 C 3.015625 -8.878906 4.035156 -10.25 5.328125 -11.625 C 6.617188 -13.007812 8.078125 -14.363281 9.703125 -15.6875 C 9.160156 -15.613281 8.675781 -15.4375 8.25 -15.15625 C 7.820312 -14.882812 7.425781 -14.585938 7.0625 -14.265625 C 6.707031 -13.953125 6.351562 -13.675781 6 -13.4375 C 5.644531 -13.207031 5.273438 -13.09375 4.890625 -13.09375 C 4.535156 -13.09375 4.222656 -13.191406 3.953125 -13.390625 C 3.679688 -13.597656 3.390625 -13.703125 3.078125 -13.703125 C 2.773438 -13.703125 2.53125 -13.582031 2.34375 -13.34375 C 2.164062 -13.101562 1.984375 -12.707031 1.796875 -12.15625 L 1.53125 -11.296875 L 0.921875 -11.296875 L 1.625 -13.625 C 1.988281 -14.945312 2.441406 -15.84375 2.984375 -16.3125 C 3.535156 -16.789062 4.085938 -17.03125 4.640625 -17.03125 C 5.046875 -17.03125 5.390625 -16.9375 5.671875 -16.75 C 5.960938 -16.570312 6.273438 -16.394531 6.609375 -16.21875 C 6.941406 -16.050781 7.375 -15.96875 7.90625 -15.96875 C 8.25 -15.96875 8.613281 -16.015625 9 -16.109375 C 9.394531 -16.203125 9.804688 -16.378906 10.234375 -16.640625 L 10.5625 -17.25 L 11.234375 -16.921875 C 10.460938 -15.816406 9.765625 -14.679688 9.140625 -13.515625 C 8.523438 -12.359375 7.992188 -11.195312 7.546875 -10.03125 C 7.097656 -8.863281 6.742188 -7.742188 6.484375 -6.671875 C 6.234375 -5.597656 6.085938 -4.601562 6.046875 -3.6875 C 6.003906 -2.738281 6.097656 -2.050781 6.328125 -1.625 C 6.566406 -1.195312 6.953125 -0.984375 7.484375 -0.984375 C 8.273438 -0.984375 9.019531 -1.179688 9.71875 -1.578125 C 10.425781 -1.972656 11.066406 -2.503906 11.640625 -3.171875 C 12.222656 -3.847656 12.738281 -4.597656 13.1875 -5.421875 C 13.632812 -6.242188 14.003906 -7.097656 14.296875 -7.984375 C 14.597656 -8.867188 14.8125 -9.71875 14.9375 -10.53125 Z M 14.9375 -10.53125 "/></g></g></g><g fill="#d2b48c" fill-opacity="1"><g transform="translate(57.356057, 45.343755)"><g><path d="M 5.65625 -21.890625 C 5.707031 -22.804688 6.046875 -23.507812 6.671875 -24 C 7.296875 -24.488281 8.046875 -24.734375 8.921875 -24.734375 C 9.710938 -24.734375 10.316406 -24.546875 10.734375 -24.171875 C 11.148438 -23.796875 11.335938 -23.28125 11.296875 -22.625 C 11.253906 -21.789062 10.910156 -21.113281 10.265625 -20.59375 C 9.628906 -20.070312 8.863281 -19.8125 7.96875 -19.8125 C 7.21875 -19.8125 6.632812 -19.992188 6.21875 -20.359375 C 5.800781 -20.734375 5.613281 -21.242188 5.65625 -21.890625 Z M 4.453125 -13.828125 C 4.804688 -14.890625 4.6875 -15.421875 4.09375 -15.421875 C 3.707031 -15.421875 3.351562 -15.226562 3.03125 -14.84375 C 2.71875 -14.457031 2.390625 -13.804688 2.046875 -12.890625 L 1.40625 -11.265625 L 0.796875 -11.265625 L 1.703125 -13.703125 C 1.992188 -14.546875 2.367188 -15.203125 2.828125 -15.671875 C 3.285156 -16.148438 3.796875 -16.488281 4.359375 -16.6875 C 4.929688 -16.882812 5.523438 -16.984375 6.140625 -16.984375 C 6.890625 -16.984375 7.476562 -16.84375 7.90625 -16.5625 C 8.332031 -16.289062 8.617188 -15.9375 8.765625 -15.5 C 8.910156 -15.0625 8.960938 -14.582031 8.921875 -14.0625 C 8.878906 -13.539062 8.773438 -13.023438 8.609375 -12.515625 L 5.25 -2.71875 C 5.050781 -2.144531 5 -1.734375 5.09375 -1.484375 C 5.195312 -1.242188 5.398438 -1.125 5.703125 -1.125 C 5.972656 -1.125 6.273438 -1.28125 6.609375 -1.59375 C 6.941406 -1.914062 7.3125 -2.597656 7.71875 -3.640625 L 8.28125 -5.1875 L 8.890625 -5.1875 L 8.0625 -2.84375 C 7.757812 -1.96875 7.375 -1.296875 6.90625 -0.828125 C 6.4375 -0.359375 5.929688 -0.03125 5.390625 0.15625 C 4.847656 0.351562 4.300781 0.453125 3.75 0.453125 C 2.832031 0.453125 2.128906 0.25 1.640625 -0.15625 C 1.160156 -0.5625 0.898438 -1.148438 0.859375 -1.921875 C 0.816406 -2.691406 0.96875 -3.597656 1.3125 -4.640625 Z M 4.453125 -13.828125 "/></g></g></g><g fill="#d2b48c" fill-opacity="1"><g transform="translate(67.659734, 45.343755)"><g><path d="M 12.859375 -16.546875 L 12.765625 -15.90625 L 1.65625 -15.90625 L 1.828125 -16.546875 Z M 5.25 -2.71875 C 5.101562 -2.164062 5.117188 -1.757812 5.296875 -1.5 C 5.472656 -1.25 5.742188 -1.125 6.109375 -1.125 C 6.554688 -1.125 7.003906 -1.347656 7.453125 -1.796875 C 7.898438 -2.242188 8.296875 -2.9375 8.640625 -3.875 L 9.125 -5.1875 L 9.734375 -5.1875 L 9.09375 -3.328125 C 8.664062 -2.046875 8.039062 -1.09375 7.21875 -0.46875 C 6.394531 0.144531 5.414062 0.453125 4.28125 0.453125 C 3.300781 0.453125 2.546875 0.226562 2.015625 -0.21875 C 1.484375 -0.664062 1.164062 -1.28125 1.0625 -2.0625 C 0.96875 -2.84375 1.050781 -3.703125 1.3125 -4.640625 L 6.109375 -21.3125 C 7.023438 -21.332031 7.859375 -21.375 8.609375 -21.4375 C 9.359375 -21.5 10.070312 -21.609375 10.75 -21.765625 Z M 5.25 -2.71875 "/></g></g></g><g fill="#d2b48c" fill-opacity="1"><g transform="translate(78.955377, 45.343755)"><g><path d="M 4.1875 -6.9375 C 5.0625 -7.28125 5.894531 -7.664062 6.6875 -8.09375 C 7.476562 -8.519531 8.148438 -8.988281 8.703125 -9.5 C 9.535156 -10.25 10.203125 -11.117188 10.703125 -12.109375 C 11.203125 -13.097656 11.453125 -14.171875 11.453125 -15.328125 C 11.453125 -15.753906 11.410156 -16.035156 11.328125 -16.171875 C 11.242188 -16.316406 11.113281 -16.390625 10.9375 -16.390625 C 10.46875 -16.390625 9.960938 -16.144531 9.421875 -15.65625 C 8.878906 -15.175781 8.34375 -14.535156 7.8125 -13.734375 C 7.28125 -12.941406 6.796875 -12.03125 6.359375 -11 C 5.921875 -9.976562 5.566406 -8.910156 5.296875 -7.796875 C 5.023438 -6.691406 4.890625 -5.617188 4.890625 -4.578125 C 4.890625 -3.378906 5.117188 -2.5625 5.578125 -2.125 C 6.035156 -1.6875 6.628906 -1.46875 7.359375 -1.46875 C 7.929688 -1.46875 8.644531 -1.660156 9.5 -2.046875 C 10.351562 -2.429688 11.195312 -3.113281 12.03125 -4.09375 L 12.546875 -3.84375 C 12.097656 -3.132812 11.507812 -2.445312 10.78125 -1.78125 C 10.0625 -1.125 9.21875 -0.585938 8.25 -0.171875 C 7.289062 0.242188 6.25 0.453125 5.125 0.453125 C 4.164062 0.453125 3.304688 0.28125 2.546875 -0.0625 C 1.785156 -0.40625 1.1875 -0.910156 0.75 -1.578125 C 0.3125 -2.253906 0.09375 -3.082031 0.09375 -4.0625 C 0.09375 -5.195312 0.28125 -6.359375 0.65625 -7.546875 C 1.03125 -8.742188 1.554688 -9.898438 2.234375 -11.015625 C 2.921875 -12.140625 3.742188 -13.15625 4.703125 -14.0625 C 5.660156 -14.96875 6.722656 -15.679688 7.890625 -16.203125 C 9.066406 -16.722656 10.316406 -16.984375 11.640625 -16.984375 C 12.585938 -16.984375 13.378906 -16.773438 14.015625 -16.359375 C 14.648438 -15.953125 14.96875 -15.320312 14.96875 -14.46875 C 14.96875 -13.632812 14.738281 -12.851562 14.28125 -12.125 C 13.820312 -11.40625 13.207031 -10.742188 12.4375 -10.140625 C 11.675781 -9.546875 10.820312 -9.015625 9.875 -8.546875 C 8.925781 -8.078125 7.953125 -7.671875 6.953125 -7.328125 C 5.960938 -6.984375 5.03125 -6.71875 4.15625 -6.53125 Z M 4.1875 -6.9375 "/></g></g></g><g fill="#d2b48c" fill-opacity="1"><g transform="translate(93.962901, 45.343755)"><g><path d="M 13.5625 -2.71875 C 13.375 -2.207031 13.328125 -1.8125 13.421875 -1.53125 C 13.515625 -1.257812 13.710938 -1.125 14.015625 -1.125 C 14.296875 -1.125 14.597656 -1.285156 14.921875 -1.609375 C 15.253906 -1.941406 15.601562 -2.617188 15.96875 -3.640625 L 16.515625 -5.1875 L 17.125 -5.1875 L 16.359375 -2.84375 C 16.078125 -1.96875 15.703125 -1.289062 15.234375 -0.8125 C 14.765625 -0.332031 14.253906 -0.00390625 13.703125 0.171875 C 13.160156 0.359375 12.632812 0.453125 12.125 0.453125 C 10.800781 0.453125 9.957031 -0.0390625 9.59375 -1.03125 C 9.40625 -1.425781 9.320312 -1.925781 9.34375 -2.53125 C 9.363281 -3.144531 9.492188 -3.847656 9.734375 -4.640625 L 14.171875 -21.34375 C 14.390625 -22.070312 14.367188 -22.601562 14.109375 -22.9375 C 13.859375 -23.28125 13.207031 -23.453125 12.15625 -23.453125 L 12.359375 -24.125 C 13.867188 -24.144531 15.21875 -24.265625 16.40625 -24.484375 C 17.601562 -24.710938 18.75 -25.03125 19.84375 -25.4375 Z M 5.890625 -1.15625 C 6.253906 -1.15625 6.679688 -1.390625 7.171875 -1.859375 C 7.660156 -2.328125 8.179688 -3.023438 8.734375 -3.953125 C 9.285156 -4.878906 9.816406 -6.019531 10.328125 -7.375 C 10.847656 -8.726562 11.3125 -10.28125 11.71875 -12.03125 L 11.234375 -8.578125 C 10.523438 -6.523438 9.820312 -4.828125 9.125 -3.484375 C 8.4375 -2.140625 7.679688 -1.144531 6.859375 -0.5 C 6.035156 0.132812 5.0625 0.453125 3.9375 0.453125 C 3.226562 0.453125 2.585938 0.289062 2.015625 -0.03125 C 1.441406 -0.351562 0.984375 -0.835938 0.640625 -1.484375 C 0.296875 -2.140625 0.125 -2.988281 0.125 -4.03125 C 0.125 -5.007812 0.28125 -6.078125 0.59375 -7.234375 C 0.90625 -8.398438 1.363281 -9.550781 1.96875 -10.6875 C 2.570312 -11.820312 3.304688 -12.867188 4.171875 -13.828125 C 5.035156 -14.785156 6.019531 -15.550781 7.125 -16.125 C 8.238281 -16.695312 9.457031 -16.984375 10.78125 -16.984375 C 11.46875 -16.984375 11.972656 -16.828125 12.296875 -16.515625 C 12.628906 -16.210938 12.828125 -15.785156 12.890625 -15.234375 L 12.640625 -14.59375 C 12.554688 -15.144531 12.40625 -15.554688 12.1875 -15.828125 C 11.976562 -16.109375 11.660156 -16.25 11.234375 -16.25 C 10.679688 -16.25 10.101562 -16 9.5 -15.5 C 8.90625 -15 8.332031 -14.316406 7.78125 -13.453125 C 7.238281 -12.585938 6.742188 -11.601562 6.296875 -10.5 C 5.847656 -9.40625 5.492188 -8.242188 5.234375 -7.015625 C 4.984375 -5.796875 4.859375 -4.578125 4.859375 -3.359375 C 4.859375 -2.628906 4.9375 -2.078125 5.09375 -1.703125 C 5.257812 -1.335938 5.523438 -1.15625 5.890625 -1.15625 Z M 5.890625 -1.15625 "/></g></g></g><g fill="#d2b48c" fill-opacity="1"><g transform="translate(112.490307, 45.343755)"><g><path d="M 3.8125 -6.375 C 4.238281 -8.03125 4.53125 -9.664062 4.6875 -11.28125 C 4.84375 -12.894531 4.957031 -14.441406 5.03125 -15.921875 C 5.113281 -17.398438 5.21875 -18.769531 5.34375 -20.03125 C 5.363281 -20.582031 5.4375 -21.15625 5.5625 -21.75 C 5.695312 -22.351562 5.890625 -22.898438 6.140625 -23.390625 C 6.398438 -23.878906 6.734375 -24.273438 7.140625 -24.578125 C 7.546875 -24.878906 8.054688 -25.03125 8.671875 -25.03125 C 9.421875 -25.03125 9.976562 -24.804688 10.34375 -24.359375 C 10.71875 -23.910156 10.875 -23.28125 10.8125 -22.46875 C 10.707031 -21.457031 10.410156 -20.347656 9.921875 -19.140625 C 9.429688 -17.941406 8.835938 -16.660156 8.140625 -15.296875 C 7.453125 -13.929688 6.765625 -12.492188 6.078125 -10.984375 C 5.398438 -9.484375 4.835938 -7.910156 4.390625 -6.265625 Z M 0.765625 -1.46875 C 0.765625 -2.320312 1.066406 -3.035156 1.671875 -3.609375 C 2.285156 -4.191406 3.019531 -4.484375 3.875 -4.484375 C 4.550781 -4.484375 5.082031 -4.3125 5.46875 -3.96875 C 5.851562 -3.625 6.046875 -3.144531 6.046875 -2.53125 C 6.046875 -2.019531 5.90625 -1.535156 5.625 -1.078125 C 5.351562 -0.617188 4.976562 -0.25 4.5 0.03125 C 4.019531 0.3125 3.488281 0.453125 2.90625 0.453125 C 2.25 0.453125 1.726562 0.28125 1.34375 -0.0625 C 0.957031 -0.40625 0.765625 -0.875 0.765625 -1.46875 Z M 0.765625 -1.46875 "/></g></g></g></svg>